M48
INCH,LZ
;FILE_FORMAT=2:4
;TYPE=PLATED
;Layer: PTH_Through
;EasyEDA v6.5.44, 2024-09-11 13:33:57
;d97fa038366940f8a7afa66022820b17,998d2601f2934e99b29d4200b4e4a5d6,10
;Gerber Generator version 0.2
;Holesize 1 = 0.0120 inch
T01C0.0120
;Holesize 2 = 0.0120 inch
T02C0.0120
;Holesize 3 = 0.0320 inch
T03C0.0320
%
G05
G90
T01
X008264Y007764
X008736Y008236
X008736Y007764
X008264Y008236
T02
X011307Y011150
X011700Y011150
X012200Y014350
X010320Y011502
X012900Y014950
X010350Y016300
X010350Y015800
X003550Y016150
X003550Y015850
X014900Y016300
X011250Y015550
X010350Y013600
X012000Y016500
X014850Y015550
X014500Y016550
X014300Y014750
X014750Y017600
X014877Y015156
X016550Y015200
X005750Y013350
X006550Y013000
X006350Y004750
X021000Y000800
X019250Y000800
X020100Y000800
X021402Y000802
X020550Y000800
X020558Y001600
X005150Y022850
X006650Y023600
X030442Y012932
X034550Y019150
X014300Y019000
X012550Y018400
X014600Y018300
X012850Y022300
X019250Y016000
X012450Y012150
X014400Y012450
X013200Y004800
X012250Y004600
X019250Y001900
X021400Y002150
X020100Y002400
X021000Y002750
X015650Y016700
X020900Y016200
X021800Y015800
X013850Y005850
X014200Y005600
X026100Y004350
X025000Y003900
X017250Y001500
X005400Y003700
X005400Y004650
X010350Y006550
X010332Y007232
X008400Y009550
X007950Y006450
X008756Y009608
X008350Y006450
X006900Y006250
X006900Y008050
X003800Y010700
X003100Y010800
X012750Y009050
X012750Y009350
X012750Y009650
X012750Y009950
X015300Y011400
X015000Y011400
X015900Y011400
X014750Y009950
X014650Y009650
X016200Y012250
X031900Y009950
X032700Y003400
X031900Y003400
X015600Y010250
X006350Y012262
X001350Y020250
X026750Y008700
X026750Y007900
X005975Y020275
X005250Y018450
X012750Y008750
X014400Y008750
T03
X000904Y014297G85X001140Y014297
X002518Y014297G85X002833Y014297
X002518Y017703G85X002833Y017703
X000904Y017703G85X001140Y017703
M30
