G04 Layer: BottomSilkscreenLayer*
G04 EasyEDA v6.5.44, 2024-09-11 13:33:57*
G04 d97fa038366940f8a7afa66022820b17,998d2601f2934e99b29d4200b4e4a5d6,10*
G04 Gerber Generator version 0.2*
G04 Scale: 100 percent, Rotated: No, Reflected: No *
G04 Dimensions in inches *
G04 leading zeros omitted , absolute positions ,3 integer and 6 decimal *
%FSLAX36Y36*%
%MOIN*%

%ADD10C,0.0080*%
%ADD11C,0.0060*%

%LPD*%
G36*
X597020Y2400000D02*
G01*
X561260Y2398100D01*
X537680Y2395780D01*
X515680Y2392620D01*
X488160Y2387120D01*
X461420Y2380220D01*
X431560Y2370480D01*
X407980Y2361460D01*
X387540Y2352420D01*
X358440Y2337400D01*
X338420Y2325920D01*
X309700Y2306780D01*
X286900Y2289480D01*
X269600Y2275000D01*
X253880Y2260440D01*
X239700Y2246140D01*
X226320Y2232000D01*
X209780Y2212340D01*
X193240Y2190340D01*
X179820Y2170700D01*
X165720Y2147140D01*
X158420Y2134520D01*
X142780Y2102340D01*
X132280Y2076420D01*
X121359Y2044199D01*
X117138Y2028800D01*
X152680Y2028800D01*
X158540Y2048140D01*
X168000Y2073280D01*
X177240Y2094900D01*
X188420Y2117280D01*
X201080Y2140060D01*
X215100Y2162060D01*
X225760Y2177000D01*
X241040Y2196640D01*
X258840Y2217060D01*
X286120Y2243840D01*
X306560Y2261660D01*
X330140Y2279240D01*
X343120Y2288300D01*
X342920Y2281500D01*
X332000Y2236720D01*
X320140Y2200560D01*
X309120Y2173060D01*
X298780Y2152640D01*
X286020Y2133660D01*
X273640Y2118060D01*
X259980Y2102340D01*
X242079Y2085060D01*
X220859Y2068060D01*
X196500Y2051840D01*
X173700Y2038560D01*
X153560Y2027920D01*
X152680Y2028800D01*
X117138Y2028800D01*
X115760Y2023779D01*
X111160Y2004120D01*
X106540Y1979780D01*
X104160Y1963280D01*
X101780Y1939180D01*
X100000Y1905120D01*
X100677Y1883120D01*
X134640Y1883120D01*
X135400Y1938120D01*
X138780Y1966320D01*
X142700Y1987620D01*
X143560Y1990440D01*
X165840Y2001100D01*
X194920Y2016519D01*
X218500Y2030680D01*
X233440Y2040920D01*
X250740Y2053920D01*
X271340Y2071980D01*
X293440Y2095280D01*
X300420Y2103920D01*
X315260Y2123600D01*
X324540Y2137680D01*
X337440Y2163640D01*
X348020Y2190340D01*
X356360Y2215500D01*
X363459Y2239840D01*
X367420Y2255560D01*
X372340Y2278340D01*
X377520Y2307980D01*
X379660Y2310080D01*
X407980Y2324140D01*
X434700Y2335220D01*
X450040Y2340740D01*
X450040Y2339500D01*
X442120Y2328220D01*
X430920Y2309780D01*
X414000Y2275200D01*
X403540Y2248560D01*
X392700Y2215500D01*
X383200Y2181760D01*
X383210Y2174640D01*
X412080Y2174640D01*
X421880Y2210000D01*
X433400Y2244680D01*
X445260Y2272380D01*
X454099Y2290140D01*
X468180Y2313700D01*
X483440Y2335700D01*
X485800Y2335700D01*
X495580Y2306340D01*
X504120Y2274420D01*
X509080Y2250840D01*
X513100Y2225700D01*
X513620Y2182500D01*
X511340Y2166000D01*
X508140Y2148700D01*
X502600Y2127480D01*
X495420Y2105480D01*
X483160Y2074840D01*
X469900Y2046540D01*
X463540Y2033899D01*
X461320Y2032060D01*
X446019Y2057560D01*
X428900Y2092140D01*
X420800Y2114140D01*
X415560Y2134560D01*
X413120Y2151060D01*
X412080Y2174640D01*
X383210Y2174640D01*
X383220Y2154980D01*
X385620Y2134620D01*
X388060Y2122800D01*
X392580Y2105440D01*
X398280Y2088980D01*
X406120Y2070280D01*
X414080Y2054420D01*
X425900Y2033200D01*
X440080Y2010420D01*
X446220Y2001279D01*
X445500Y1999360D01*
X413640Y1941279D01*
X394020Y1905120D01*
X365980Y1850920D01*
X346880Y1810060D01*
X331960Y1775480D01*
X324060Y1755840D01*
X309520Y1715760D01*
X301580Y1690620D01*
X294460Y1666260D01*
X289780Y1648980D01*
X283240Y1621480D01*
X277840Y1594840D01*
X273840Y1571980D01*
X272980Y1569040D01*
X258020Y1583760D01*
X239720Y1604980D01*
X226220Y1622260D01*
X209680Y1645840D01*
X192920Y1673720D01*
X177500Y1703980D01*
X166900Y1729120D01*
X158220Y1753480D01*
X148320Y1788060D01*
X141120Y1824199D01*
X137080Y1854060D01*
X134640Y1883120D01*
X100677Y1883120D01*
X101039Y1871339D01*
X102640Y1850920D01*
X106460Y1819480D01*
X111120Y1795920D01*
X115740Y1776260D01*
X121359Y1755800D01*
X131400Y1725980D01*
X142060Y1699259D01*
X158180Y1666040D01*
X168840Y1647400D01*
X178299Y1631699D01*
X190420Y1613540D01*
X209720Y1587700D01*
X226280Y1568040D01*
X246020Y1546960D01*
X249262Y1543940D01*
X299760Y1543940D01*
X303080Y1567260D01*
X307080Y1590040D01*
X313300Y1620700D01*
X323340Y1659980D01*
X335420Y1700060D01*
X347980Y1735400D01*
X360520Y1766819D01*
X369260Y1787260D01*
X385680Y1823280D01*
X408960Y1869760D01*
X431200Y1911420D01*
X464260Y1971920D01*
X465600Y1973260D01*
X468440Y1968779D01*
X483579Y1947560D01*
X508160Y1911960D01*
X523480Y1888620D01*
X540500Y1859560D01*
X552860Y1835200D01*
X559880Y1818700D01*
X567200Y1797680D01*
X571920Y1778980D01*
X575220Y1760560D01*
X575720Y1725200D01*
X573600Y1704640D01*
X570260Y1680740D01*
X566360Y1661540D01*
X560100Y1637580D01*
X553600Y1617540D01*
X543500Y1592400D01*
X526280Y1557240D01*
X512640Y1532680D01*
X494260Y1501260D01*
X466380Y1456480D01*
X464580Y1454580D01*
X437840Y1463740D01*
X415040Y1472780D01*
X388320Y1485420D01*
X371019Y1494800D01*
X356079Y1503480D01*
X331719Y1519500D01*
X312060Y1534120D01*
X299760Y1543940D01*
X249262Y1543940D01*
X269300Y1525260D01*
X290040Y1508000D01*
X311280Y1492060D01*
X338780Y1473880D01*
X364460Y1459180D01*
X388534Y1447200D01*
X495540Y1447200D01*
X518900Y1484760D01*
X535300Y1512260D01*
X549920Y1538180D01*
X566240Y1570620D01*
X578940Y1600560D01*
X589720Y1633260D01*
X591200Y1638760D01*
X626520Y1639740D01*
X646960Y1642400D01*
X669760Y1646940D01*
X688900Y1652440D01*
X704360Y1658160D01*
X727940Y1669540D01*
X747560Y1681740D01*
X760960Y1692100D01*
X778480Y1707460D01*
X796660Y1726759D01*
X805460Y1737760D01*
X817700Y1755840D01*
X828160Y1773520D01*
X837420Y1791980D01*
X844120Y1807700D01*
X850240Y1824820D01*
X854840Y1841480D01*
X858139Y1856420D01*
X861160Y1877620D01*
X861180Y1906699D01*
X859599Y1927440D01*
X854980Y1954620D01*
X847920Y1978980D01*
X843300Y1992340D01*
X838319Y2004720D01*
X827520Y2026920D01*
X817400Y2044379D01*
X803560Y2063839D01*
X792159Y2077200D01*
X770380Y2098580D01*
X754140Y2111420D01*
X734200Y2124600D01*
X711420Y2136420D01*
X690200Y2144920D01*
X668980Y2151420D01*
X648420Y2156060D01*
X634380Y2158520D01*
X577560Y2158520D01*
X561260Y2156860D01*
X542560Y2153060D01*
X539420Y2152060D01*
X542900Y2175420D01*
X543740Y2214700D01*
X541180Y2238760D01*
X537980Y2257820D01*
X532500Y2283860D01*
X524660Y2312920D01*
X510020Y2356460D01*
X518040Y2358080D01*
X537680Y2361200D01*
X560480Y2363560D01*
X591140Y2365160D01*
X622020Y2365180D01*
X661900Y2361220D01*
X687460Y2357240D01*
X709060Y2352540D01*
X738040Y2344640D01*
X756240Y2338660D01*
X789140Y2325660D01*
X826200Y2307160D01*
X852740Y2291300D01*
X870240Y2279320D01*
X890660Y2264100D01*
X911900Y2246280D01*
X947340Y2210780D01*
X966260Y2188000D01*
X976860Y2174140D01*
X997640Y2143200D01*
X1010000Y2121200D01*
X1023760Y2093700D01*
X1031720Y2075340D01*
X1036420Y2063060D01*
X1043520Y2042980D01*
X1049020Y2024560D01*
X1054520Y2002560D01*
X1059980Y1972700D01*
X1063960Y1938920D01*
X1065600Y1914820D01*
X1065360Y1880760D01*
X1064120Y1861920D01*
X1062340Y1843839D01*
X1058480Y1817120D01*
X1053640Y1793560D01*
X1049060Y1775880D01*
X1041080Y1749560D01*
X1034740Y1732260D01*
X1025639Y1710260D01*
X1011620Y1681200D01*
X996360Y1654740D01*
X980420Y1630900D01*
X968600Y1615200D01*
X959140Y1603400D01*
X941520Y1582980D01*
X911900Y1553839D01*
X891860Y1536780D01*
X868640Y1519340D01*
X852140Y1508160D01*
X828500Y1493959D01*
X792400Y1475760D01*
X767480Y1465500D01*
X748220Y1458520D01*
X729500Y1452820D01*
X699640Y1445200D01*
X679200Y1441020D01*
X650900Y1437360D01*
X630460Y1435260D01*
X573060Y1435340D01*
X551060Y1437260D01*
X529820Y1439680D01*
X511740Y1442720D01*
X496800Y1446040D01*
X495540Y1447200D01*
X388534Y1447200D01*
X407980Y1438600D01*
X429200Y1430320D01*
X453560Y1422260D01*
X477939Y1415280D01*
X510900Y1408040D01*
X536120Y1404280D01*
X559700Y1401900D01*
X600320Y1400000D01*
X639880Y1401879D01*
X662680Y1404220D01*
X685480Y1407440D01*
X713000Y1413020D01*
X737380Y1419280D01*
X771960Y1430740D01*
X786900Y1436240D01*
X812840Y1447520D01*
X844280Y1463660D01*
X868660Y1478360D01*
X887440Y1490900D01*
X915180Y1511800D01*
X938620Y1531720D01*
X970220Y1563540D01*
X993680Y1591620D01*
X1005580Y1607340D01*
X1024460Y1635620D01*
X1036780Y1656040D01*
X1055880Y1693760D01*
X1067800Y1722840D01*
X1075120Y1744060D01*
X1085160Y1777840D01*
X1090720Y1802980D01*
X1093840Y1819480D01*
X1097720Y1850920D01*
X1099440Y1872920D01*
X1100000Y1882340D01*
X1099500Y1931060D01*
X1096200Y1963280D01*
X1091640Y1993120D01*
X1085160Y2022200D01*
X1082880Y2030060D01*
X1074960Y2056360D01*
X1066540Y2080340D01*
X1055860Y2106280D01*
X1037600Y2142420D01*
X1024460Y2164420D01*
X1005500Y2192700D01*
X989880Y2213140D01*
X974780Y2231160D01*
X954180Y2253200D01*
X933900Y2272120D01*
X921340Y2283080D01*
X906400Y2294920D01*
X890660Y2306760D01*
X866300Y2323080D01*
X840360Y2338540D01*
X804200Y2356380D01*
X785120Y2364320D01*
X764100Y2372060D01*
X744440Y2378420D01*
X722440Y2384740D01*
X697960Y2390200D01*
X679980Y2393380D01*
X662680Y2395800D01*
X638640Y2398160D01*
G37*
G36*
X3621300Y2152400D02*
G01*
X3621300Y2144400D01*
X3605000Y2144400D01*
X3605000Y2138300D01*
X3621300Y2138300D01*
X3621300Y2119600D01*
X3626500Y2119600D01*
X3626500Y2138300D01*
X3648000Y2138340D01*
X3653540Y2138600D01*
X3656000Y2138800D01*
X3656000Y2138400D01*
X3647500Y2133700D01*
X3626500Y2119600D01*
X3621300Y2119600D01*
X3621300Y2112600D01*
X3625600Y2112600D01*
X3663600Y2137500D01*
X3663600Y2144400D01*
X3626500Y2144400D01*
X3626500Y2152400D01*
G37*
G36*
X3605000Y2107000D02*
G01*
X3605000Y2070800D01*
X3608900Y2070800D01*
X3613660Y2076100D01*
X3618180Y2080780D01*
X3622460Y2084880D01*
X3626520Y2088380D01*
X3630380Y2091320D01*
X3634040Y2093680D01*
X3635820Y2094660D01*
X3639240Y2096220D01*
X3642520Y2097240D01*
X3645680Y2097740D01*
X3647200Y2097800D01*
X3649700Y2097640D01*
X3652000Y2097140D01*
X3654060Y2096300D01*
X3655840Y2095100D01*
X3657300Y2093560D01*
X3658380Y2091639D01*
X3659060Y2089360D01*
X3659300Y2086699D01*
X3659160Y2084900D01*
X3658780Y2083160D01*
X3658140Y2081480D01*
X3657320Y2079880D01*
X3656300Y2078360D01*
X3655120Y2076900D01*
X3653820Y2075520D01*
X3652400Y2074199D01*
X3656000Y2070400D01*
X3657860Y2072180D01*
X3659540Y2074019D01*
X3661000Y2075920D01*
X3662260Y2077920D01*
X3663260Y2080060D01*
X3663980Y2082320D01*
X3664440Y2084760D01*
X3664600Y2087400D01*
X3664460Y2089920D01*
X3664060Y2092260D01*
X3663399Y2094420D01*
X3662480Y2096380D01*
X3661320Y2098140D01*
X3659940Y2099700D01*
X3658360Y2101040D01*
X3656560Y2102160D01*
X3654560Y2103040D01*
X3652380Y2103680D01*
X3650020Y2104060D01*
X3647500Y2104200D01*
X3645720Y2104140D01*
X3643920Y2103920D01*
X3642140Y2103580D01*
X3640340Y2103120D01*
X3638540Y2102520D01*
X3636720Y2101800D01*
X3633080Y2100020D01*
X3629400Y2097760D01*
X3625659Y2095080D01*
X3621880Y2092000D01*
X3618039Y2088540D01*
X3614100Y2084740D01*
X3610100Y2080600D01*
X3610460Y2085440D01*
X3610600Y2090200D01*
X3610600Y2107000D01*
G37*
G36*
X3634500Y2063100D02*
G01*
X3630779Y2063020D01*
X3627300Y2062780D01*
X3624080Y2062400D01*
X3621080Y2061840D01*
X3618340Y2061160D01*
X3615840Y2060340D01*
X3613580Y2059379D01*
X3611560Y2058280D01*
X3609780Y2057040D01*
X3608240Y2055700D01*
X3606940Y2054220D01*
X3605880Y2052640D01*
X3605059Y2050940D01*
X3604460Y2049120D01*
X3604120Y2047220D01*
X3604000Y2045200D01*
X3609200Y2045200D01*
X3609360Y2046879D01*
X3609860Y2048460D01*
X3610700Y2049920D01*
X3611900Y2051279D01*
X3613440Y2052500D01*
X3615320Y2053580D01*
X3617580Y2054540D01*
X3620200Y2055320D01*
X3623200Y2055960D01*
X3626580Y2056420D01*
X3630340Y2056699D01*
X3634500Y2056800D01*
X3638580Y2056699D01*
X3642280Y2056420D01*
X3645580Y2055960D01*
X3648519Y2055320D01*
X3651100Y2054540D01*
X3653320Y2053580D01*
X3655160Y2052500D01*
X3656680Y2051279D01*
X3657820Y2049920D01*
X3658660Y2048460D01*
X3659140Y2046879D01*
X3659300Y2045200D01*
X3659140Y2043520D01*
X3658660Y2041940D01*
X3657820Y2040480D01*
X3656680Y2039120D01*
X3655160Y2037900D01*
X3653320Y2036819D01*
X3651100Y2035860D01*
X3648519Y2035080D01*
X3645580Y2034440D01*
X3642280Y2033980D01*
X3638580Y2033700D01*
X3634500Y2033600D01*
X3630340Y2033700D01*
X3626580Y2033980D01*
X3623200Y2034440D01*
X3620200Y2035080D01*
X3617580Y2035860D01*
X3615320Y2036819D01*
X3613440Y2037900D01*
X3611900Y2039120D01*
X3610700Y2040480D01*
X3609860Y2041940D01*
X3609360Y2043520D01*
X3609200Y2045200D01*
X3604000Y2045200D01*
X3604120Y2043180D01*
X3604460Y2041260D01*
X3605059Y2039460D01*
X3605880Y2037740D01*
X3606940Y2036160D01*
X3608240Y2034680D01*
X3609780Y2033320D01*
X3611560Y2032080D01*
X3613580Y2030960D01*
X3615840Y2030000D01*
X3618340Y2029160D01*
X3621080Y2028460D01*
X3624080Y2027920D01*
X3627300Y2027520D01*
X3630779Y2027280D01*
X3634500Y2027200D01*
X3638180Y2027280D01*
X3641620Y2027520D01*
X3644820Y2027920D01*
X3647760Y2028460D01*
X3650480Y2029160D01*
X3652940Y2030000D01*
X3655179Y2030960D01*
X3657160Y2032080D01*
X3658920Y2033320D01*
X3660419Y2034680D01*
X3661700Y2036160D01*
X3662760Y2037740D01*
X3663560Y2039460D01*
X3664140Y2041260D01*
X3664480Y2043180D01*
X3664600Y2045200D01*
X3664480Y2047220D01*
X3664140Y2049120D01*
X3663560Y2050940D01*
X3662760Y2052640D01*
X3661700Y2054220D01*
X3660419Y2055700D01*
X3658920Y2057040D01*
X3657160Y2058280D01*
X3655179Y2059379D01*
X3652940Y2060340D01*
X3650480Y2061160D01*
X3647760Y2061840D01*
X3644820Y2062400D01*
X3641620Y2062780D01*
X3638180Y2063020D01*
G37*
G36*
X3605000Y2019199D02*
G01*
X3605000Y1982900D01*
X3608900Y1982900D01*
X3613660Y1988200D01*
X3618180Y1992900D01*
X3622460Y1997000D01*
X3624500Y1998839D01*
X3628460Y2002060D01*
X3632240Y2004720D01*
X3635820Y2006840D01*
X3639240Y2008400D01*
X3640899Y2008980D01*
X3642520Y2009420D01*
X3644120Y2009740D01*
X3645680Y2009940D01*
X3647200Y2010000D01*
X3649700Y2009840D01*
X3652000Y2009319D01*
X3654060Y2008460D01*
X3655840Y2007240D01*
X3657300Y2005680D01*
X3658380Y2003760D01*
X3659060Y2001459D01*
X3659300Y1998800D01*
X3659160Y1997020D01*
X3658780Y1995300D01*
X3658140Y1993640D01*
X3657320Y1992040D01*
X3656300Y1990500D01*
X3655120Y1989060D01*
X3653820Y1987680D01*
X3652400Y1986399D01*
X3656000Y1982500D01*
X3657860Y1984280D01*
X3659540Y1986120D01*
X3661000Y1988060D01*
X3662260Y1990080D01*
X3663260Y1992220D01*
X3663980Y1994500D01*
X3664440Y1996960D01*
X3664600Y1999600D01*
X3664460Y2002120D01*
X3664060Y2004460D01*
X3663399Y2006620D01*
X3662480Y2008580D01*
X3661320Y2010340D01*
X3659940Y2011900D01*
X3658360Y2013240D01*
X3656560Y2014360D01*
X3654560Y2015240D01*
X3652380Y2015880D01*
X3650020Y2016260D01*
X3647500Y2016399D01*
X3645720Y2016339D01*
X3643920Y2016120D01*
X3642140Y2015780D01*
X3640340Y2015320D01*
X3638540Y2014720D01*
X3636720Y2014000D01*
X3633080Y2012220D01*
X3629400Y2009960D01*
X3625659Y2007280D01*
X3621880Y2004199D01*
X3618039Y2000740D01*
X3614100Y1996940D01*
X3610100Y1992800D01*
X3610460Y1997640D01*
X3610600Y2002400D01*
X3610600Y2019199D01*
G37*
G36*
X3668399Y1978400D02*
G01*
X3590800Y1953600D01*
X3590800Y1948800D01*
X3668399Y1973600D01*
G37*
G36*
X3619000Y1944300D02*
G01*
X3616940Y1944160D01*
X3614980Y1943700D01*
X3613120Y1943000D01*
X3611380Y1942000D01*
X3609780Y1940780D01*
X3608360Y1939300D01*
X3607100Y1937600D01*
X3606019Y1935700D01*
X3605160Y1933580D01*
X3604520Y1931300D01*
X3604140Y1928820D01*
X3604005Y1926300D01*
X3608800Y1926300D01*
X3609000Y1928820D01*
X3609580Y1931080D01*
X3610500Y1933080D01*
X3611740Y1934780D01*
X3613279Y1936140D01*
X3615040Y1937160D01*
X3617040Y1937780D01*
X3619200Y1938000D01*
X3621120Y1937840D01*
X3622860Y1937400D01*
X3624420Y1936699D01*
X3625820Y1935740D01*
X3627100Y1934560D01*
X3628260Y1933180D01*
X3629320Y1931639D01*
X3630140Y1930200D01*
X3636500Y1930200D01*
X3639240Y1932980D01*
X3642220Y1934980D01*
X3645380Y1936200D01*
X3648700Y1936600D01*
X3650860Y1936420D01*
X3652880Y1935900D01*
X3654700Y1935060D01*
X3656320Y1933880D01*
X3657640Y1932420D01*
X3658639Y1930660D01*
X3659280Y1928600D01*
X3659500Y1926300D01*
X3659320Y1924280D01*
X3658780Y1922420D01*
X3657919Y1920760D01*
X3656760Y1919340D01*
X3655320Y1918200D01*
X3653639Y1917320D01*
X3651720Y1916780D01*
X3649600Y1916600D01*
X3647080Y1916900D01*
X3644900Y1917740D01*
X3643000Y1919060D01*
X3641360Y1920780D01*
X3639940Y1922820D01*
X3638680Y1925120D01*
X3637540Y1927600D01*
X3636500Y1930200D01*
X3630140Y1930200D01*
X3631220Y1928080D01*
X3633800Y1922000D01*
X3632559Y1920240D01*
X3631160Y1918620D01*
X3629620Y1917180D01*
X3627960Y1915960D01*
X3626139Y1914960D01*
X3624200Y1914220D01*
X3622160Y1913760D01*
X3620000Y1913600D01*
X3617679Y1913839D01*
X3615560Y1914560D01*
X3613639Y1915700D01*
X3612000Y1917220D01*
X3610659Y1919079D01*
X3609660Y1921240D01*
X3609020Y1923660D01*
X3608800Y1926300D01*
X3604005Y1926300D01*
X3604140Y1923580D01*
X3604520Y1921100D01*
X3605160Y1918779D01*
X3606019Y1916620D01*
X3607100Y1914660D01*
X3608380Y1912880D01*
X3609860Y1911339D01*
X3611520Y1910040D01*
X3613320Y1909000D01*
X3615280Y1908240D01*
X3617380Y1907760D01*
X3619600Y1907600D01*
X3622440Y1907860D01*
X3625080Y1908560D01*
X3627460Y1909660D01*
X3629620Y1911060D01*
X3631560Y1912720D01*
X3633240Y1914560D01*
X3634700Y1916500D01*
X3635899Y1918500D01*
X3636200Y1918500D01*
X3637360Y1916960D01*
X3638660Y1915500D01*
X3640100Y1914160D01*
X3641700Y1912980D01*
X3643440Y1912000D01*
X3645340Y1911240D01*
X3647400Y1910760D01*
X3649600Y1910600D01*
X3651740Y1910740D01*
X3653759Y1911140D01*
X3655620Y1911800D01*
X3657340Y1912700D01*
X3658920Y1913800D01*
X3660299Y1915120D01*
X3661500Y1916620D01*
X3662520Y1918300D01*
X3663320Y1920140D01*
X3663920Y1922100D01*
X3664280Y1924199D01*
X3664400Y1926399D01*
X3664260Y1928800D01*
X3663880Y1931020D01*
X3663260Y1933060D01*
X3662400Y1934920D01*
X3661340Y1936600D01*
X3660080Y1938060D01*
X3658620Y1939319D01*
X3657000Y1940380D01*
X3655200Y1941200D01*
X3653260Y1941800D01*
X3651200Y1942180D01*
X3649000Y1942300D01*
X3646720Y1942100D01*
X3644540Y1941540D01*
X3642500Y1940700D01*
X3640580Y1939620D01*
X3638840Y1938400D01*
X3637280Y1937060D01*
X3635940Y1935720D01*
X3634800Y1934400D01*
X3634400Y1934400D01*
X3633200Y1936279D01*
X3631860Y1938100D01*
X3630320Y1939780D01*
X3628580Y1941260D01*
X3626600Y1942520D01*
X3624360Y1943480D01*
X3621840Y1944079D01*
G37*
G36*
X3634500Y1900000D02*
G01*
X3630779Y1899920D01*
X3627300Y1899680D01*
X3624080Y1899300D01*
X3621080Y1898760D01*
X3618340Y1898060D01*
X3615840Y1897240D01*
X3613580Y1896279D01*
X3611560Y1895180D01*
X3609780Y1893940D01*
X3608240Y1892600D01*
X3606940Y1891120D01*
X3605880Y1889540D01*
X3605059Y1887840D01*
X3604460Y1886020D01*
X3604120Y1884120D01*
X3604000Y1882100D01*
X3609200Y1882100D01*
X3609360Y1883779D01*
X3609860Y1885340D01*
X3610700Y1886800D01*
X3611900Y1888140D01*
X3613440Y1889360D01*
X3615320Y1890440D01*
X3617580Y1891380D01*
X3620200Y1892160D01*
X3623200Y1892780D01*
X3626580Y1893220D01*
X3630340Y1893500D01*
X3634500Y1893600D01*
X3638580Y1893500D01*
X3642280Y1893220D01*
X3645580Y1892780D01*
X3648519Y1892160D01*
X3651100Y1891380D01*
X3653320Y1890440D01*
X3655160Y1889360D01*
X3656680Y1888140D01*
X3657820Y1886800D01*
X3658660Y1885340D01*
X3659140Y1883779D01*
X3659300Y1882100D01*
X3659140Y1880420D01*
X3658660Y1878839D01*
X3657820Y1877360D01*
X3656680Y1876000D01*
X3655160Y1874760D01*
X3653320Y1873660D01*
X3651100Y1872700D01*
X3648519Y1871900D01*
X3645580Y1871260D01*
X3642280Y1870780D01*
X3638580Y1870500D01*
X3634500Y1870400D01*
X3630340Y1870500D01*
X3626580Y1870780D01*
X3623200Y1871260D01*
X3620200Y1871900D01*
X3617580Y1872700D01*
X3615320Y1873660D01*
X3613440Y1874760D01*
X3611900Y1876000D01*
X3610700Y1877360D01*
X3609860Y1878839D01*
X3609360Y1880420D01*
X3609200Y1882100D01*
X3604000Y1882100D01*
X3604120Y1880080D01*
X3604460Y1878160D01*
X3605059Y1876360D01*
X3605880Y1874640D01*
X3606940Y1873060D01*
X3608240Y1871579D01*
X3609780Y1870220D01*
X3611560Y1868980D01*
X3613580Y1867860D01*
X3615840Y1866900D01*
X3618340Y1866060D01*
X3621080Y1865360D01*
X3624080Y1864820D01*
X3627300Y1864420D01*
X3630779Y1864180D01*
X3634500Y1864100D01*
X3638180Y1864180D01*
X3641620Y1864420D01*
X3644820Y1864820D01*
X3647760Y1865360D01*
X3650480Y1866060D01*
X3652940Y1866900D01*
X3655179Y1867860D01*
X3657160Y1868980D01*
X3658920Y1870220D01*
X3660419Y1871579D01*
X3661700Y1873060D01*
X3662760Y1874640D01*
X3663560Y1876360D01*
X3664140Y1878160D01*
X3664480Y1880080D01*
X3664600Y1882100D01*
X3664480Y1884120D01*
X3664140Y1886020D01*
X3663560Y1887840D01*
X3662760Y1889540D01*
X3661700Y1891120D01*
X3660419Y1892600D01*
X3658920Y1893940D01*
X3657160Y1895180D01*
X3655179Y1896279D01*
X3652940Y1897240D01*
X3650480Y1898060D01*
X3647760Y1898760D01*
X3644820Y1899300D01*
X3641620Y1899680D01*
X3638180Y1899920D01*
G37*
G36*
X3668399Y1859199D02*
G01*
X3590800Y1834400D01*
X3590800Y1829600D01*
X3668399Y1854400D01*
G37*
G36*
X3605000Y1824700D02*
G01*
X3605000Y1788400D01*
X3608900Y1788400D01*
X3613660Y1793720D01*
X3618180Y1798440D01*
X3622460Y1802540D01*
X3624500Y1804379D01*
X3628460Y1807600D01*
X3632240Y1810260D01*
X3634040Y1811380D01*
X3635820Y1812360D01*
X3637559Y1813200D01*
X3639240Y1813899D01*
X3640899Y1814480D01*
X3642520Y1814940D01*
X3645680Y1815440D01*
X3647200Y1815500D01*
X3649700Y1815340D01*
X3652000Y1814840D01*
X3654060Y1814000D01*
X3655840Y1812800D01*
X3657300Y1811260D01*
X3658380Y1809340D01*
X3659060Y1807060D01*
X3659300Y1804400D01*
X3659160Y1802600D01*
X3658780Y1800840D01*
X3658140Y1799160D01*
X3657320Y1797540D01*
X3656300Y1796020D01*
X3655120Y1794560D01*
X3653820Y1793180D01*
X3652400Y1791900D01*
X3656000Y1788000D01*
X3657860Y1789820D01*
X3659540Y1791680D01*
X3661000Y1793600D01*
X3662260Y1795620D01*
X3663260Y1797740D01*
X3663980Y1800020D01*
X3664440Y1802460D01*
X3664600Y1805100D01*
X3664460Y1807620D01*
X3664060Y1809960D01*
X3663399Y1812120D01*
X3662480Y1814079D01*
X3661320Y1815840D01*
X3659940Y1817400D01*
X3658360Y1818740D01*
X3656560Y1819860D01*
X3654560Y1820740D01*
X3652380Y1821380D01*
X3650020Y1821759D01*
X3647500Y1821900D01*
X3645720Y1821840D01*
X3643920Y1821620D01*
X3642140Y1821279D01*
X3640340Y1820820D01*
X3638540Y1820220D01*
X3636720Y1819500D01*
X3633080Y1817720D01*
X3629400Y1815460D01*
X3625659Y1812780D01*
X3621880Y1809700D01*
X3618039Y1806240D01*
X3614100Y1802440D01*
X3610100Y1798300D01*
X3610460Y1803140D01*
X3610600Y1807900D01*
X3610600Y1824700D01*
G37*
G36*
X3605000Y1780800D02*
G01*
X3605000Y1744500D01*
X3608900Y1744500D01*
X3613660Y1749800D01*
X3618180Y1754500D01*
X3622460Y1758600D01*
X3624500Y1760440D01*
X3628460Y1763660D01*
X3632240Y1766320D01*
X3635820Y1768440D01*
X3639240Y1770000D01*
X3640899Y1770580D01*
X3642520Y1771020D01*
X3644120Y1771339D01*
X3645680Y1771540D01*
X3647200Y1771600D01*
X3649700Y1771440D01*
X3652000Y1770920D01*
X3654060Y1770060D01*
X3655840Y1768860D01*
X3657300Y1767280D01*
X3658380Y1765360D01*
X3659060Y1763060D01*
X3659300Y1760400D01*
X3659160Y1758620D01*
X3658780Y1756900D01*
X3658140Y1755240D01*
X3657320Y1753640D01*
X3656300Y1752100D01*
X3655120Y1750660D01*
X3653820Y1749280D01*
X3652400Y1748000D01*
X3656000Y1744100D01*
X3657860Y1745880D01*
X3659540Y1747720D01*
X3661000Y1749660D01*
X3662260Y1751680D01*
X3663260Y1753820D01*
X3663980Y1756100D01*
X3664440Y1758560D01*
X3664600Y1761200D01*
X3664460Y1763720D01*
X3664060Y1766060D01*
X3663399Y1768220D01*
X3662480Y1770180D01*
X3661320Y1771940D01*
X3659940Y1773500D01*
X3658360Y1774840D01*
X3656560Y1775960D01*
X3654560Y1776840D01*
X3652380Y1777480D01*
X3650020Y1777860D01*
X3647500Y1778000D01*
X3645720Y1777940D01*
X3643920Y1777720D01*
X3642140Y1777380D01*
X3640340Y1776920D01*
X3638540Y1776320D01*
X3636720Y1775600D01*
X3633080Y1773820D01*
X3629400Y1771560D01*
X3625659Y1768880D01*
X3621880Y1765800D01*
X3618039Y1762340D01*
X3614100Y1758540D01*
X3610100Y1754400D01*
X3610460Y1759240D01*
X3610600Y1764000D01*
X3610600Y1780800D01*
G37*
G36*
X3605000Y1715600D02*
G01*
X3605000Y1710200D01*
X3610200Y1709600D01*
X3610200Y1709400D01*
X3608960Y1708060D01*
X3607799Y1706620D01*
X3606740Y1705060D01*
X3605820Y1703420D01*
X3605059Y1701680D01*
X3604500Y1699860D01*
X3604120Y1697960D01*
X3604085Y1697400D01*
X3609500Y1697400D01*
X3609900Y1700460D01*
X3611040Y1703360D01*
X3612960Y1706220D01*
X3615600Y1709100D01*
X3639000Y1709100D01*
X3641180Y1706260D01*
X3642679Y1703520D01*
X3643519Y1700780D01*
X3643800Y1698000D01*
X3643660Y1696220D01*
X3643220Y1694500D01*
X3642540Y1692880D01*
X3641580Y1691380D01*
X3640400Y1690000D01*
X3638980Y1688760D01*
X3637360Y1687680D01*
X3635539Y1686740D01*
X3633540Y1686000D01*
X3631380Y1685460D01*
X3629060Y1685120D01*
X3626600Y1685000D01*
X3624040Y1685100D01*
X3621660Y1685360D01*
X3619460Y1685820D01*
X3617460Y1686459D01*
X3615659Y1687260D01*
X3614080Y1688240D01*
X3612720Y1689379D01*
X3611580Y1690680D01*
X3610680Y1692120D01*
X3610040Y1693740D01*
X3609640Y1695500D01*
X3609500Y1697400D01*
X3604085Y1697400D01*
X3604000Y1696000D01*
X3604100Y1694019D01*
X3604380Y1692140D01*
X3604840Y1690340D01*
X3605500Y1688660D01*
X3606320Y1687080D01*
X3607320Y1685620D01*
X3608500Y1684280D01*
X3609860Y1683040D01*
X3611380Y1681960D01*
X3613080Y1680980D01*
X3614940Y1680160D01*
X3616960Y1679460D01*
X3619120Y1678920D01*
X3621460Y1678520D01*
X3623960Y1678280D01*
X3626600Y1678200D01*
X3629140Y1678300D01*
X3631560Y1678600D01*
X3633860Y1679079D01*
X3636019Y1679740D01*
X3638020Y1680560D01*
X3639900Y1681540D01*
X3641600Y1682640D01*
X3643159Y1683880D01*
X3644560Y1685240D01*
X3645779Y1686699D01*
X3646840Y1688260D01*
X3647700Y1689880D01*
X3648399Y1691579D01*
X3648900Y1693340D01*
X3649200Y1695160D01*
X3649300Y1697000D01*
X3648960Y1700540D01*
X3647960Y1703660D01*
X3646340Y1706540D01*
X3644200Y1709400D01*
X3651700Y1709100D01*
X3668700Y1709100D01*
X3668700Y1715600D01*
G37*
G36*
X3604500Y1670100D02*
G01*
X3604140Y1668460D01*
X3604000Y1666200D01*
X3604580Y1663000D01*
X3606320Y1660820D01*
X3609100Y1659600D01*
X3612900Y1659199D01*
X3668700Y1659199D01*
X3668700Y1665600D01*
X3612400Y1665600D01*
X3611040Y1665760D01*
X3610120Y1666180D01*
X3609580Y1666819D01*
X3609400Y1667900D01*
X3609600Y1669199D01*
G37*
G36*
X3605000Y1644900D02*
G01*
X3605000Y1639600D01*
X3610299Y1639000D01*
X3610299Y1638800D01*
X3609020Y1637180D01*
X3607840Y1635500D01*
X3606760Y1633760D01*
X3605840Y1631960D01*
X3605080Y1630080D01*
X3604500Y1628160D01*
X3604108Y1626000D01*
X3609200Y1626000D01*
X3609580Y1629180D01*
X3610740Y1632200D01*
X3612620Y1635220D01*
X3615200Y1638400D01*
X3627900Y1638400D01*
X3627420Y1634800D01*
X3626840Y1631620D01*
X3626180Y1628800D01*
X3625460Y1626360D01*
X3624640Y1624259D01*
X3623740Y1622500D01*
X3622760Y1621060D01*
X3621680Y1619920D01*
X3620520Y1619060D01*
X3619260Y1618460D01*
X3617919Y1618120D01*
X3616500Y1618000D01*
X3613159Y1618640D01*
X3610899Y1620360D01*
X3609600Y1622900D01*
X3609200Y1626000D01*
X3604108Y1626000D01*
X3604000Y1624199D01*
X3604200Y1621620D01*
X3604800Y1619240D01*
X3605779Y1617100D01*
X3607120Y1615240D01*
X3608840Y1613720D01*
X3610920Y1612580D01*
X3613340Y1611860D01*
X3616100Y1611600D01*
X3617820Y1611699D01*
X3619440Y1612000D01*
X3620940Y1612480D01*
X3622340Y1613180D01*
X3623639Y1614079D01*
X3624840Y1615200D01*
X3625960Y1616519D01*
X3626980Y1618060D01*
X3627900Y1619820D01*
X3628759Y1621800D01*
X3629520Y1623980D01*
X3630220Y1626399D01*
X3630840Y1629060D01*
X3631400Y1631940D01*
X3632300Y1638400D01*
X3634460Y1638340D01*
X3636560Y1638060D01*
X3638519Y1637520D01*
X3640280Y1636639D01*
X3641760Y1635440D01*
X3642900Y1633820D01*
X3643639Y1631759D01*
X3643900Y1629199D01*
X3643480Y1625420D01*
X3642360Y1621940D01*
X3640820Y1618800D01*
X3639100Y1616100D01*
X3643600Y1613500D01*
X3645539Y1616699D01*
X3646500Y1618600D01*
X3647380Y1620660D01*
X3648159Y1622880D01*
X3648759Y1625240D01*
X3649160Y1627720D01*
X3649300Y1630300D01*
X3649160Y1632800D01*
X3648720Y1635020D01*
X3648020Y1637020D01*
X3647080Y1638760D01*
X3645880Y1640260D01*
X3644440Y1641540D01*
X3642799Y1642600D01*
X3640960Y1643440D01*
X3638920Y1644100D01*
X3636700Y1644540D01*
X3634320Y1644820D01*
X3631800Y1644900D01*
G37*
G36*
X3605000Y1600000D02*
G01*
X3605000Y1593400D01*
X3631600Y1593400D01*
X3634520Y1593280D01*
X3637020Y1592900D01*
X3639080Y1592260D01*
X3640740Y1591339D01*
X3642020Y1590160D01*
X3642900Y1588680D01*
X3643420Y1586900D01*
X3643600Y1584800D01*
X3643480Y1583160D01*
X3643159Y1581620D01*
X3642600Y1580120D01*
X3641820Y1578640D01*
X3640840Y1577180D01*
X3639640Y1575680D01*
X3636600Y1572500D01*
X3605000Y1572500D01*
X3605000Y1566000D01*
X3648200Y1566000D01*
X3648200Y1571300D01*
X3641900Y1572000D01*
X3641900Y1572200D01*
X3643399Y1573779D01*
X3644780Y1575400D01*
X3646040Y1577080D01*
X3647140Y1578820D01*
X3648039Y1580660D01*
X3648720Y1582580D01*
X3649160Y1584620D01*
X3649300Y1586800D01*
X3649180Y1588959D01*
X3648820Y1590900D01*
X3648220Y1592660D01*
X3647380Y1594220D01*
X3646320Y1595600D01*
X3645020Y1596780D01*
X3643480Y1597760D01*
X3641720Y1598580D01*
X3639720Y1599199D01*
X3637500Y1599640D01*
X3635059Y1599920D01*
X3632400Y1600000D01*
G37*
G36*
X3626600Y1554300D02*
G01*
X3623980Y1554199D01*
X3621520Y1553880D01*
X3619200Y1553360D01*
X3617040Y1552660D01*
X3615020Y1551800D01*
X3613159Y1550780D01*
X3611460Y1549600D01*
X3609940Y1548280D01*
X3608580Y1546860D01*
X3607380Y1545320D01*
X3606360Y1543660D01*
X3605520Y1541940D01*
X3604860Y1540140D01*
X3604380Y1538260D01*
X3604100Y1536360D01*
X3604000Y1534400D01*
X3609400Y1534400D01*
X3609540Y1536279D01*
X3609960Y1538060D01*
X3610640Y1539720D01*
X3611580Y1541240D01*
X3612740Y1542640D01*
X3614140Y1543880D01*
X3615740Y1544980D01*
X3617559Y1545880D01*
X3619560Y1546620D01*
X3621740Y1547160D01*
X3624100Y1547480D01*
X3626600Y1547600D01*
X3629080Y1547480D01*
X3631420Y1547160D01*
X3633600Y1546620D01*
X3635600Y1545880D01*
X3637400Y1544980D01*
X3639020Y1543880D01*
X3640419Y1542640D01*
X3641600Y1541240D01*
X3642540Y1539720D01*
X3643240Y1538060D01*
X3643660Y1536279D01*
X3643800Y1534400D01*
X3643660Y1532500D01*
X3643240Y1530720D01*
X3642540Y1529040D01*
X3641600Y1527520D01*
X3640419Y1526120D01*
X3639020Y1524880D01*
X3637400Y1523800D01*
X3635600Y1522880D01*
X3633600Y1522160D01*
X3631420Y1521639D01*
X3629080Y1521320D01*
X3626600Y1521200D01*
X3624100Y1521320D01*
X3621740Y1521639D01*
X3619560Y1522160D01*
X3617559Y1522880D01*
X3615740Y1523800D01*
X3614140Y1524880D01*
X3612740Y1526120D01*
X3611580Y1527520D01*
X3610640Y1529040D01*
X3609960Y1530720D01*
X3609540Y1532500D01*
X3609400Y1534400D01*
X3604000Y1534400D01*
X3604100Y1532420D01*
X3604380Y1530500D01*
X3604860Y1528620D01*
X3605520Y1526819D01*
X3606360Y1525080D01*
X3607380Y1523440D01*
X3608580Y1521900D01*
X3609940Y1520480D01*
X3611460Y1519180D01*
X3613159Y1518000D01*
X3615020Y1516980D01*
X3617040Y1516120D01*
X3619200Y1515420D01*
X3621520Y1514920D01*
X3623980Y1514600D01*
X3626600Y1514500D01*
X3629220Y1514600D01*
X3631700Y1514920D01*
X3634040Y1515420D01*
X3636220Y1516120D01*
X3638240Y1516980D01*
X3640120Y1518000D01*
X3641820Y1519180D01*
X3643360Y1520480D01*
X3644720Y1521900D01*
X3645920Y1523440D01*
X3646940Y1525080D01*
X3647780Y1526819D01*
X3648440Y1528620D01*
X3648920Y1530500D01*
X3649200Y1532420D01*
X3649300Y1534400D01*
X3649200Y1536360D01*
X3648920Y1538260D01*
X3648440Y1540140D01*
X3647780Y1541940D01*
X3646940Y1543660D01*
X3645920Y1545320D01*
X3644720Y1546860D01*
X3643360Y1548280D01*
X3641820Y1549600D01*
X3640120Y1550780D01*
X3638240Y1551800D01*
X3636220Y1552660D01*
X3634040Y1553360D01*
X3631700Y1553880D01*
X3629220Y1554199D01*
G37*
G36*
X3634500Y1505600D02*
G01*
X3631800Y1505520D01*
X3629200Y1505320D01*
X3626720Y1504960D01*
X3624360Y1504480D01*
X3622120Y1503860D01*
X3620020Y1503080D01*
X3618020Y1502180D01*
X3616160Y1501160D01*
X3614440Y1499980D01*
X3612840Y1498680D01*
X3611400Y1497240D01*
X3610080Y1495660D01*
X3608920Y1493959D01*
X3607900Y1492120D01*
X3607020Y1490160D01*
X3606300Y1488060D01*
X3605740Y1485840D01*
X3605320Y1483480D01*
X3605080Y1481000D01*
X3605000Y1478400D01*
X3605000Y1470400D01*
X3610400Y1470400D01*
X3610400Y1477600D01*
X3610500Y1480200D01*
X3610820Y1482620D01*
X3611340Y1484860D01*
X3612080Y1486940D01*
X3612980Y1488860D01*
X3614100Y1490600D01*
X3615380Y1492160D01*
X3616860Y1493560D01*
X3618500Y1494800D01*
X3620320Y1495860D01*
X3622300Y1496759D01*
X3624440Y1497500D01*
X3626740Y1498060D01*
X3629180Y1498480D01*
X3631780Y1498720D01*
X3634500Y1498800D01*
X3637240Y1498720D01*
X3639820Y1498480D01*
X3642240Y1498060D01*
X3644520Y1497500D01*
X3646620Y1496759D01*
X3648560Y1495860D01*
X3650320Y1494800D01*
X3651920Y1493560D01*
X3653340Y1492160D01*
X3654580Y1490600D01*
X3655640Y1488860D01*
X3656520Y1486940D01*
X3657200Y1484860D01*
X3657700Y1482620D01*
X3658000Y1480200D01*
X3658100Y1477600D01*
X3658100Y1470400D01*
X3605000Y1470400D01*
X3605000Y1463800D01*
X3663600Y1463800D01*
X3663600Y1478200D01*
X3663519Y1480840D01*
X3663279Y1483340D01*
X3662880Y1485720D01*
X3662340Y1487960D01*
X3661640Y1490080D01*
X3660800Y1492060D01*
X3659800Y1493899D01*
X3658660Y1495620D01*
X3657380Y1497200D01*
X3655940Y1498640D01*
X3654380Y1499960D01*
X3652700Y1501140D01*
X3650860Y1502180D01*
X3648900Y1503080D01*
X3646800Y1503839D01*
X3644600Y1504480D01*
X3642260Y1504960D01*
X3639780Y1505320D01*
X3637200Y1505520D01*
G37*
G36*
X3609500Y1453400D02*
G01*
X3608260Y1451920D01*
X3607160Y1450380D01*
X3606220Y1448720D01*
X3605440Y1447020D01*
X3604820Y1445220D01*
X3604360Y1443380D01*
X3604100Y1441459D01*
X3604000Y1439500D01*
X3604100Y1437400D01*
X3604380Y1435360D01*
X3604860Y1433420D01*
X3605520Y1431540D01*
X3606360Y1429780D01*
X3607380Y1428140D01*
X3608580Y1426600D01*
X3609940Y1425180D01*
X3611460Y1423899D01*
X3613159Y1422760D01*
X3615020Y1421759D01*
X3617040Y1420940D01*
X3619200Y1420280D01*
X3621520Y1419800D01*
X3623980Y1419500D01*
X3626600Y1419400D01*
X3629220Y1419520D01*
X3631700Y1419840D01*
X3634040Y1420360D01*
X3636220Y1421080D01*
X3638240Y1421960D01*
X3640120Y1423020D01*
X3641820Y1424220D01*
X3643360Y1425580D01*
X3644720Y1427060D01*
X3645920Y1428640D01*
X3646940Y1430340D01*
X3647780Y1432140D01*
X3648440Y1434019D01*
X3648920Y1435960D01*
X3649200Y1437960D01*
X3649300Y1440000D01*
X3648880Y1443899D01*
X3647740Y1447280D01*
X3646100Y1450160D01*
X3644100Y1452600D01*
X3639900Y1449199D01*
X3641480Y1447200D01*
X3642720Y1445080D01*
X3643519Y1442760D01*
X3643800Y1440200D01*
X3643660Y1438220D01*
X3643240Y1436339D01*
X3642540Y1434580D01*
X3641600Y1432940D01*
X3640419Y1431459D01*
X3639020Y1430120D01*
X3637400Y1428940D01*
X3635600Y1427960D01*
X3633600Y1427160D01*
X3631420Y1426579D01*
X3629080Y1426220D01*
X3626600Y1426100D01*
X3624100Y1426220D01*
X3621740Y1426560D01*
X3619560Y1427100D01*
X3617559Y1427860D01*
X3615740Y1428800D01*
X3614140Y1429940D01*
X3612740Y1431240D01*
X3611580Y1432700D01*
X3610640Y1434319D01*
X3609960Y1436080D01*
X3609540Y1437980D01*
X3609400Y1440000D01*
X3609740Y1443000D01*
X3610700Y1445780D01*
X3612100Y1448300D01*
X3613800Y1450500D01*
G37*
G36*
X3605000Y1408500D02*
G01*
X3605000Y1403200D01*
X3610299Y1402600D01*
X3610299Y1402400D01*
X3609020Y1400780D01*
X3607840Y1399100D01*
X3606760Y1397360D01*
X3605840Y1395560D01*
X3605080Y1393680D01*
X3604500Y1391759D01*
X3604108Y1389600D01*
X3609200Y1389600D01*
X3609580Y1392780D01*
X3610740Y1395800D01*
X3612620Y1398820D01*
X3615200Y1402000D01*
X3627900Y1402000D01*
X3627420Y1398400D01*
X3626840Y1395220D01*
X3626180Y1392400D01*
X3625460Y1389960D01*
X3624640Y1387860D01*
X3623740Y1386100D01*
X3622760Y1384660D01*
X3621680Y1383520D01*
X3620520Y1382640D01*
X3619260Y1382060D01*
X3617919Y1381720D01*
X3616500Y1381600D01*
X3613159Y1382240D01*
X3610899Y1383940D01*
X3609600Y1386500D01*
X3609200Y1389600D01*
X3604108Y1389600D01*
X3604000Y1387800D01*
X3604200Y1385220D01*
X3604800Y1382840D01*
X3605779Y1380700D01*
X3607120Y1378839D01*
X3608840Y1377320D01*
X3610920Y1376180D01*
X3613340Y1375460D01*
X3616100Y1375200D01*
X3617820Y1375300D01*
X3619440Y1375600D01*
X3620940Y1376080D01*
X3622340Y1376780D01*
X3623639Y1377680D01*
X3624840Y1378800D01*
X3625960Y1380120D01*
X3626980Y1381660D01*
X3627900Y1383420D01*
X3628759Y1385400D01*
X3629520Y1387580D01*
X3630220Y1390000D01*
X3630840Y1392660D01*
X3631400Y1395540D01*
X3632300Y1402000D01*
X3634460Y1401940D01*
X3636560Y1401660D01*
X3638519Y1401120D01*
X3640280Y1400260D01*
X3641760Y1399040D01*
X3642900Y1397420D01*
X3643639Y1395360D01*
X3643900Y1392800D01*
X3643480Y1389019D01*
X3642360Y1385540D01*
X3640820Y1382400D01*
X3639100Y1379700D01*
X3643600Y1377100D01*
X3645539Y1380300D01*
X3646500Y1382200D01*
X3647380Y1384259D01*
X3648159Y1386480D01*
X3648759Y1388839D01*
X3649160Y1391320D01*
X3649300Y1393899D01*
X3649160Y1396399D01*
X3648720Y1398620D01*
X3648020Y1400620D01*
X3647080Y1402360D01*
X3645880Y1403860D01*
X3644440Y1405140D01*
X3642799Y1406200D01*
X3640960Y1407040D01*
X3638920Y1407700D01*
X3636700Y1408140D01*
X3634320Y1408420D01*
X3631800Y1408500D01*
G37*
G36*
X3605000Y1362300D02*
G01*
X3605000Y1356100D01*
X3640760Y1356120D01*
X3649500Y1356519D01*
X3655800Y1356900D01*
X3655800Y1356600D01*
X3642500Y1352000D01*
X3611000Y1340500D01*
X3611000Y1336000D01*
X3642500Y1324400D01*
X3655800Y1319800D01*
X3655800Y1319500D01*
X3642840Y1320220D01*
X3638800Y1320300D01*
X3605000Y1320300D01*
X3605000Y1314300D01*
X3663600Y1314300D01*
X3663600Y1322400D01*
X3631600Y1334000D01*
X3619100Y1338200D01*
X3619100Y1338600D01*
X3631600Y1342700D01*
X3663600Y1354100D01*
X3663600Y1362300D01*
G37*
G36*
X3604500Y1284500D02*
G01*
X3604140Y1282840D01*
X3604000Y1280600D01*
X3604580Y1277400D01*
X3606320Y1275220D01*
X3609100Y1274000D01*
X3612900Y1273600D01*
X3668700Y1273600D01*
X3668700Y1280000D01*
X3612400Y1280000D01*
X3611040Y1280160D01*
X3610120Y1280580D01*
X3609580Y1281220D01*
X3609400Y1282300D01*
X3609600Y1283600D01*
G37*
G36*
X3629100Y1262600D02*
G01*
X3626960Y1262520D01*
X3625200Y1262300D01*
X3625200Y1256800D01*
X3630000Y1256800D01*
X3633240Y1256600D01*
X3636060Y1256040D01*
X3638480Y1255120D01*
X3640460Y1253860D01*
X3642000Y1252260D01*
X3643100Y1250340D01*
X3643780Y1248120D01*
X3644000Y1245600D01*
X3643759Y1243240D01*
X3643039Y1241020D01*
X3641900Y1238940D01*
X3640299Y1237080D01*
X3638300Y1235480D01*
X3635899Y1234200D01*
X3633120Y1233260D01*
X3630000Y1232700D01*
X3630000Y1256800D01*
X3625200Y1256800D01*
X3625200Y1232800D01*
X3622860Y1233000D01*
X3620680Y1233440D01*
X3618639Y1234060D01*
X3616780Y1234880D01*
X3615100Y1235900D01*
X3613600Y1237080D01*
X3612300Y1238460D01*
X3611220Y1239980D01*
X3610340Y1241680D01*
X3609720Y1243520D01*
X3609340Y1245480D01*
X3609200Y1247600D01*
X3609440Y1250620D01*
X3610120Y1253420D01*
X3611220Y1256040D01*
X3612700Y1258500D01*
X3608399Y1260900D01*
X3606700Y1257980D01*
X3605960Y1256400D01*
X3605299Y1254720D01*
X3604760Y1252920D01*
X3604360Y1251020D01*
X3604100Y1248980D01*
X3604000Y1246800D01*
X3604100Y1244700D01*
X3604380Y1242640D01*
X3604860Y1240680D01*
X3605539Y1238780D01*
X3606380Y1237000D01*
X3607400Y1235300D01*
X3608600Y1233720D01*
X3609980Y1232280D01*
X3611520Y1230960D01*
X3613200Y1229780D01*
X3615059Y1228760D01*
X3617080Y1227900D01*
X3619240Y1227220D01*
X3621560Y1226720D01*
X3624000Y1226400D01*
X3626600Y1226300D01*
X3629160Y1226400D01*
X3631600Y1226720D01*
X3633900Y1227220D01*
X3636060Y1227900D01*
X3638060Y1228760D01*
X3639940Y1229760D01*
X3641640Y1230920D01*
X3643200Y1232200D01*
X3644580Y1233600D01*
X3645800Y1235100D01*
X3646860Y1236700D01*
X3647720Y1238360D01*
X3648399Y1240100D01*
X3648900Y1241900D01*
X3649200Y1243740D01*
X3649300Y1245600D01*
X3649140Y1248200D01*
X3648680Y1250600D01*
X3647900Y1252820D01*
X3646840Y1254800D01*
X3645500Y1256580D01*
X3643880Y1258160D01*
X3642020Y1259480D01*
X3639900Y1260600D01*
X3637520Y1261460D01*
X3634940Y1262100D01*
X3632120Y1262480D01*
G37*
G36*
X3605000Y1215400D02*
G01*
X3605000Y1210000D01*
X3610299Y1209500D01*
X3610299Y1209200D01*
X3609020Y1207620D01*
X3607840Y1205960D01*
X3606760Y1204240D01*
X3605840Y1202440D01*
X3605080Y1200580D01*
X3604500Y1198660D01*
X3604102Y1196400D01*
X3609200Y1196400D01*
X3609580Y1199600D01*
X3610740Y1202640D01*
X3612620Y1205700D01*
X3615200Y1208900D01*
X3627900Y1208900D01*
X3627420Y1205280D01*
X3626840Y1202060D01*
X3626180Y1199240D01*
X3625460Y1196780D01*
X3624640Y1194680D01*
X3623740Y1192920D01*
X3622760Y1191460D01*
X3621680Y1190320D01*
X3620520Y1189460D01*
X3619260Y1188860D01*
X3617919Y1188520D01*
X3616500Y1188400D01*
X3613159Y1189040D01*
X3610899Y1190740D01*
X3609600Y1193300D01*
X3609200Y1196400D01*
X3604102Y1196400D01*
X3604000Y1194700D01*
X3604200Y1192120D01*
X3604800Y1189740D01*
X3605779Y1187600D01*
X3607120Y1185740D01*
X3608840Y1184220D01*
X3610920Y1183080D01*
X3613340Y1182360D01*
X3616100Y1182100D01*
X3617820Y1182200D01*
X3619440Y1182500D01*
X3620940Y1182980D01*
X3622340Y1183680D01*
X3623639Y1184580D01*
X3624840Y1185700D01*
X3625960Y1187020D01*
X3626980Y1188560D01*
X3627900Y1190320D01*
X3628759Y1192300D01*
X3629520Y1194480D01*
X3630220Y1196900D01*
X3630840Y1199560D01*
X3631400Y1202440D01*
X3632300Y1208900D01*
X3634460Y1208840D01*
X3636560Y1208560D01*
X3638519Y1208020D01*
X3640280Y1207160D01*
X3641760Y1205940D01*
X3642900Y1204320D01*
X3643639Y1202260D01*
X3643900Y1199700D01*
X3643480Y1195920D01*
X3642360Y1192440D01*
X3640820Y1189300D01*
X3639100Y1186600D01*
X3643600Y1184000D01*
X3645539Y1187200D01*
X3646500Y1189100D01*
X3647380Y1191160D01*
X3648159Y1193380D01*
X3648759Y1195740D01*
X3649160Y1198220D01*
X3649300Y1200800D01*
X3649160Y1203280D01*
X3648720Y1205500D01*
X3648020Y1207460D01*
X3647080Y1209200D01*
X3645880Y1210720D01*
X3644440Y1212000D01*
X3642799Y1213060D01*
X3640960Y1213920D01*
X3638920Y1214580D01*
X3636700Y1215040D01*
X3634320Y1215320D01*
X3631800Y1215400D01*
G37*
G36*
X3605000Y1170700D02*
G01*
X3605000Y1164100D01*
X3631600Y1164100D01*
X3634520Y1163980D01*
X3637020Y1163620D01*
X3639080Y1163000D01*
X3640740Y1162100D01*
X3642020Y1160920D01*
X3642900Y1159460D01*
X3643420Y1157680D01*
X3643600Y1155600D01*
X3643480Y1153940D01*
X3643159Y1152360D01*
X3642600Y1150840D01*
X3641820Y1149360D01*
X3640840Y1147880D01*
X3639640Y1146380D01*
X3636600Y1143200D01*
X3605000Y1143200D01*
X3605000Y1136800D01*
X3668700Y1136800D01*
X3668700Y1143200D01*
X3651000Y1143200D01*
X3642000Y1143000D01*
X3643460Y1144580D01*
X3644820Y1146200D01*
X3646060Y1147880D01*
X3647160Y1149620D01*
X3648039Y1151420D01*
X3648720Y1153340D01*
X3649160Y1155360D01*
X3649300Y1157500D01*
X3649180Y1159660D01*
X3648820Y1161600D01*
X3648220Y1163360D01*
X3647380Y1164920D01*
X3646320Y1166300D01*
X3645020Y1167480D01*
X3643480Y1168460D01*
X3641720Y1169280D01*
X3639720Y1169900D01*
X3637500Y1170340D01*
X3635059Y1170620D01*
X3632400Y1170700D01*
G37*
G36*
X3609500Y1126900D02*
G01*
X3608260Y1125420D01*
X3607160Y1123880D01*
X3606220Y1122220D01*
X3605440Y1120520D01*
X3604820Y1118720D01*
X3604360Y1116880D01*
X3604100Y1114960D01*
X3604000Y1113000D01*
X3604100Y1110900D01*
X3604380Y1108860D01*
X3604860Y1106920D01*
X3605520Y1105060D01*
X3606360Y1103280D01*
X3607380Y1101640D01*
X3608580Y1100100D01*
X3609940Y1098680D01*
X3611460Y1097400D01*
X3613159Y1096260D01*
X3615020Y1095260D01*
X3617040Y1094440D01*
X3619200Y1093780D01*
X3621520Y1093300D01*
X3623980Y1093000D01*
X3626600Y1092900D01*
X3629220Y1093020D01*
X3631700Y1093340D01*
X3634040Y1093860D01*
X3636220Y1094580D01*
X3638240Y1095460D01*
X3640120Y1096520D01*
X3641820Y1097720D01*
X3643360Y1099080D01*
X3644720Y1100560D01*
X3645920Y1102140D01*
X3646940Y1103840D01*
X3647780Y1105640D01*
X3648440Y1107520D01*
X3648920Y1109460D01*
X3649200Y1111460D01*
X3649300Y1113500D01*
X3648880Y1117460D01*
X3647740Y1120820D01*
X3646100Y1123660D01*
X3644100Y1126100D01*
X3639900Y1122700D01*
X3641480Y1120700D01*
X3642720Y1118580D01*
X3643519Y1116260D01*
X3643800Y1113700D01*
X3643660Y1111720D01*
X3643240Y1109840D01*
X3642540Y1108080D01*
X3641600Y1106440D01*
X3640419Y1104960D01*
X3639020Y1103620D01*
X3637400Y1102440D01*
X3635600Y1101460D01*
X3633600Y1100660D01*
X3631420Y1100080D01*
X3629080Y1099720D01*
X3626600Y1099600D01*
X3624100Y1099720D01*
X3621740Y1100060D01*
X3619560Y1100600D01*
X3617559Y1101360D01*
X3615740Y1102320D01*
X3614140Y1103460D01*
X3612740Y1104760D01*
X3611580Y1106240D01*
X3610640Y1107860D01*
X3609960Y1109640D01*
X3609540Y1111560D01*
X3609400Y1113600D01*
X3609740Y1116540D01*
X3610700Y1119280D01*
X3612100Y1121800D01*
X3613800Y1124000D01*
G37*
G36*
X3662000Y1082500D02*
G01*
X3660120Y1082160D01*
X3658700Y1081220D01*
X3657799Y1079800D01*
X3657500Y1078000D01*
X3657799Y1076160D01*
X3658700Y1074740D01*
X3660120Y1073820D01*
X3662000Y1073500D01*
X3663820Y1073820D01*
X3665220Y1074740D01*
X3666100Y1076160D01*
X3666400Y1078000D01*
X3666100Y1079800D01*
X3665220Y1081220D01*
X3663820Y1082160D01*
G37*
G36*
X3605000Y1081200D02*
G01*
X3605000Y1074800D01*
X3648200Y1074800D01*
X3648200Y1081200D01*
G37*
G36*
X3605000Y1059000D02*
G01*
X3605000Y1052800D01*
X3640760Y1052820D01*
X3649500Y1053220D01*
X3655800Y1053600D01*
X3655800Y1053300D01*
X3642500Y1048700D01*
X3611000Y1037200D01*
X3611000Y1032700D01*
X3642500Y1021200D01*
X3655800Y1016500D01*
X3655800Y1016200D01*
X3642840Y1016919D01*
X3638800Y1017000D01*
X3605000Y1017000D01*
X3605000Y1011000D01*
X3663600Y1011000D01*
X3663600Y1019200D01*
X3631600Y1030699D01*
X3619100Y1034900D01*
X3619100Y1035300D01*
X3631600Y1039400D01*
X3663600Y1050800D01*
X3663600Y1059000D01*
G37*
G36*
X3648200Y984000D02*
G01*
X3598980Y966740D01*
X3597040Y965900D01*
X3595220Y964980D01*
X3593500Y963980D01*
X3591900Y962880D01*
X3590480Y961660D01*
X3589220Y960340D01*
X3588140Y958880D01*
X3587280Y957300D01*
X3586640Y955580D01*
X3586240Y953720D01*
X3586100Y951700D01*
X3586160Y950320D01*
X3586320Y949020D01*
X3586600Y947840D01*
X3587000Y946800D01*
X3592300Y948100D01*
X3591840Y949680D01*
X3591660Y950580D01*
X3591600Y951500D01*
X3591800Y953259D01*
X3592340Y954860D01*
X3593220Y956320D01*
X3594400Y957640D01*
X3595840Y958820D01*
X3597500Y959860D01*
X3599380Y960800D01*
X3601400Y961600D01*
X3604800Y962500D01*
X3648200Y945100D01*
X3648200Y951900D01*
X3623500Y961100D01*
X3611300Y965400D01*
X3611300Y965800D01*
X3623500Y969500D01*
X3648200Y977600D01*
G37*
G36*
X3622100Y941600D02*
G01*
X3620020Y941500D01*
X3618100Y941180D01*
X3616280Y940680D01*
X3614620Y939980D01*
X3613080Y939120D01*
X3611680Y938060D01*
X3610419Y936840D01*
X3609280Y935460D01*
X3608279Y933920D01*
X3607400Y932240D01*
X3606660Y930440D01*
X3606060Y928480D01*
X3605600Y926400D01*
X3605260Y924220D01*
X3605059Y921900D01*
X3605000Y907900D01*
X3610299Y907900D01*
X3610299Y918400D01*
X3610380Y920920D01*
X3610620Y923259D01*
X3611000Y925420D01*
X3611580Y927380D01*
X3612300Y929140D01*
X3613200Y930699D01*
X3614280Y932039D01*
X3615520Y933160D01*
X3616960Y934040D01*
X3618580Y934680D01*
X3620400Y935060D01*
X3622400Y935200D01*
X3624180Y935080D01*
X3625820Y934700D01*
X3627260Y934080D01*
X3628560Y933220D01*
X3629700Y932140D01*
X3630659Y930819D01*
X3631480Y929280D01*
X3632140Y927520D01*
X3632660Y925540D01*
X3633020Y923360D01*
X3633220Y920980D01*
X3633300Y918400D01*
X3633300Y907900D01*
X3638399Y907900D01*
X3638399Y916800D01*
X3638580Y920480D01*
X3639100Y923580D01*
X3639960Y926140D01*
X3641120Y928180D01*
X3642559Y929720D01*
X3644260Y930780D01*
X3646220Y931400D01*
X3648399Y931600D01*
X3650899Y931380D01*
X3652980Y930699D01*
X3654700Y929580D01*
X3656040Y928000D01*
X3657060Y925980D01*
X3657760Y923500D01*
X3658159Y920580D01*
X3658300Y917200D01*
X3658300Y907900D01*
X3605000Y907900D01*
X3605000Y901200D01*
X3663600Y901200D01*
X3663600Y918199D01*
X3663519Y921100D01*
X3663240Y923820D01*
X3662780Y926340D01*
X3662140Y928680D01*
X3661280Y930780D01*
X3660220Y932660D01*
X3658960Y934300D01*
X3657460Y935660D01*
X3655760Y936740D01*
X3653800Y937540D01*
X3651620Y938040D01*
X3649200Y938199D01*
X3647060Y938060D01*
X3645040Y937620D01*
X3643140Y936919D01*
X3641380Y935960D01*
X3639820Y934720D01*
X3638480Y933220D01*
X3637360Y931480D01*
X3636500Y929500D01*
X3636200Y929500D01*
X3635520Y932080D01*
X3634540Y934419D01*
X3633240Y936500D01*
X3631620Y938259D01*
X3629700Y939659D01*
X3627480Y940720D01*
X3624940Y941380D01*
G37*
G36*
X3620600Y870699D02*
G01*
X3618080Y870540D01*
X3615760Y870040D01*
X3613620Y869260D01*
X3611680Y868199D01*
X3609940Y866880D01*
X3608399Y865320D01*
X3607080Y863560D01*
X3606000Y861600D01*
X3605140Y859479D01*
X3604500Y857200D01*
X3604120Y854800D01*
X3604000Y852300D01*
X3604180Y849040D01*
X3604680Y846080D01*
X3605460Y843420D01*
X3606460Y841020D01*
X3607660Y838860D01*
X3609020Y836919D01*
X3610480Y835220D01*
X3612000Y833700D01*
X3616200Y837099D01*
X3614900Y838420D01*
X3613660Y839860D01*
X3612520Y841440D01*
X3611480Y843160D01*
X3610620Y845040D01*
X3609980Y847120D01*
X3609540Y849400D01*
X3609400Y851900D01*
X3609600Y854460D01*
X3610200Y856800D01*
X3611160Y858880D01*
X3612480Y860660D01*
X3614120Y862120D01*
X3616060Y863199D01*
X3618300Y863860D01*
X3620800Y864100D01*
X3622559Y864000D01*
X3624200Y863680D01*
X3625720Y863120D01*
X3627140Y862320D01*
X3628420Y861280D01*
X3629540Y859940D01*
X3630539Y858340D01*
X3631360Y856440D01*
X3632020Y854220D01*
X3632500Y851700D01*
X3632799Y848820D01*
X3632900Y845600D01*
X3638000Y845600D01*
X3638100Y848480D01*
X3638399Y851060D01*
X3638900Y853300D01*
X3639560Y855280D01*
X3640380Y856960D01*
X3641360Y858379D01*
X3642480Y859539D01*
X3643700Y860460D01*
X3645040Y861160D01*
X3646480Y861640D01*
X3648000Y861919D01*
X3649600Y862000D01*
X3651680Y861820D01*
X3653540Y861300D01*
X3655200Y860440D01*
X3656580Y859260D01*
X3657720Y857800D01*
X3658560Y856060D01*
X3659100Y854040D01*
X3659300Y851800D01*
X3658820Y848319D01*
X3657600Y845080D01*
X3655779Y842140D01*
X3653500Y839500D01*
X3657700Y835900D01*
X3659120Y837560D01*
X3660419Y839280D01*
X3661600Y841120D01*
X3662620Y843040D01*
X3663440Y845100D01*
X3664080Y847260D01*
X3664460Y849560D01*
X3664600Y852000D01*
X3664500Y854340D01*
X3664160Y856580D01*
X3663620Y858660D01*
X3662880Y860600D01*
X3661940Y862360D01*
X3660800Y863940D01*
X3659460Y865340D01*
X3657940Y866500D01*
X3656240Y867440D01*
X3654360Y868120D01*
X3652320Y868560D01*
X3650100Y868700D01*
X3647480Y868500D01*
X3645120Y867940D01*
X3642980Y867020D01*
X3641080Y865780D01*
X3639440Y864240D01*
X3638020Y862460D01*
X3636840Y860440D01*
X3635899Y858199D01*
X3635600Y858199D01*
X3634820Y860720D01*
X3633720Y863060D01*
X3632280Y865180D01*
X3630539Y867039D01*
X3628480Y868560D01*
X3626139Y869720D01*
X3623500Y870440D01*
G37*
G36*
X3617000Y828300D02*
G01*
X3631900Y790400D01*
X3637300Y790400D01*
X3652200Y828300D01*
X3646400Y828300D01*
X3639300Y809000D01*
X3634800Y797099D01*
X3634400Y797099D01*
X3622799Y828300D01*
G37*
G36*
X3605000Y762900D02*
G01*
X3605000Y756400D01*
X3631600Y756400D01*
X3634520Y756280D01*
X3637020Y755900D01*
X3639080Y755260D01*
X3640740Y754340D01*
X3642020Y753160D01*
X3642900Y751680D01*
X3643420Y749900D01*
X3643600Y747800D01*
X3643480Y746140D01*
X3643159Y744580D01*
X3642600Y743080D01*
X3641820Y741620D01*
X3640840Y740160D01*
X3639640Y738680D01*
X3636600Y735500D01*
X3605000Y735500D01*
X3605000Y729000D01*
X3668700Y729000D01*
X3668700Y735500D01*
X3651000Y735500D01*
X3642000Y735200D01*
X3643460Y736780D01*
X3644820Y738400D01*
X3646060Y740080D01*
X3647160Y741820D01*
X3648039Y743620D01*
X3648720Y745540D01*
X3649160Y747560D01*
X3649300Y749700D01*
X3649180Y751880D01*
X3648820Y753840D01*
X3648220Y755600D01*
X3647380Y757159D01*
X3646320Y758540D01*
X3645020Y759720D01*
X3643480Y760699D01*
X3641720Y761500D01*
X3639720Y762120D01*
X3637500Y762560D01*
X3635059Y762820D01*
X3632400Y762900D01*
G37*
G36*
X3605600Y720300D02*
G01*
X3604500Y716440D01*
X3604140Y714479D01*
X3604000Y712600D01*
X3604260Y709500D01*
X3605000Y706940D01*
X3606220Y704880D01*
X3607840Y703280D01*
X3609880Y702099D01*
X3612260Y701300D01*
X3614980Y700840D01*
X3618000Y700699D01*
X3642799Y700699D01*
X3642799Y694100D01*
X3647799Y694100D01*
X3648200Y700900D01*
X3660400Y701700D01*
X3660400Y707200D01*
X3648200Y707200D01*
X3648200Y719100D01*
X3642799Y719100D01*
X3642799Y707200D01*
X3617799Y707200D01*
X3614240Y707540D01*
X3611560Y708640D01*
X3609880Y710740D01*
X3609300Y714000D01*
X3609400Y715260D01*
X3609680Y716580D01*
X3610059Y717860D01*
X3610500Y719000D01*
G37*
G36*
X3662000Y685699D02*
G01*
X3660120Y685360D01*
X3658700Y684419D01*
X3657799Y683000D01*
X3657500Y681200D01*
X3657799Y679360D01*
X3658700Y677940D01*
X3660120Y677020D01*
X3662000Y676700D01*
X3663820Y677020D01*
X3665220Y677940D01*
X3666100Y679360D01*
X3666400Y681200D01*
X3666100Y683000D01*
X3665220Y684419D01*
X3663820Y685360D01*
G37*
G36*
X3605000Y684400D02*
G01*
X3605000Y678000D01*
X3648200Y678000D01*
X3648200Y684400D01*
G37*
G36*
X3663600Y668000D02*
G01*
X3605000Y655699D01*
X3605000Y647900D01*
X3641500Y638500D01*
X3654800Y635600D01*
X3654800Y635300D01*
X3641500Y632300D01*
X3605000Y623200D01*
X3605000Y615400D01*
X3663600Y602800D01*
X3663600Y609600D01*
X3623960Y617360D01*
X3612000Y619600D01*
X3612000Y620000D01*
X3631000Y624200D01*
X3663600Y632500D01*
X3663600Y638700D01*
X3631000Y647099D01*
X3612000Y651400D01*
X3612000Y651800D01*
X3626320Y654320D01*
X3663600Y661700D01*
G37*
G36*
X3605000Y575200D02*
G01*
X3605000Y569900D01*
X3610200Y569300D01*
X3610200Y569100D01*
X3608960Y567740D01*
X3607799Y566280D01*
X3606740Y564720D01*
X3605820Y563080D01*
X3605059Y561340D01*
X3604500Y559540D01*
X3604120Y557660D01*
X3604085Y557100D01*
X3609500Y557100D01*
X3609900Y560100D01*
X3611040Y563020D01*
X3612960Y565900D01*
X3615600Y568800D01*
X3639000Y568800D01*
X3641180Y565920D01*
X3642679Y563180D01*
X3643519Y560480D01*
X3643800Y557700D01*
X3643660Y555920D01*
X3643220Y554200D01*
X3642540Y552580D01*
X3641580Y551080D01*
X3640400Y549700D01*
X3638980Y548460D01*
X3637360Y547380D01*
X3635539Y546440D01*
X3633540Y545700D01*
X3631380Y545160D01*
X3629060Y544820D01*
X3626600Y544700D01*
X3624040Y544800D01*
X3621660Y545060D01*
X3619460Y545520D01*
X3617460Y546160D01*
X3615659Y546960D01*
X3614080Y547940D01*
X3612720Y549080D01*
X3611580Y550380D01*
X3610680Y551820D01*
X3610040Y553440D01*
X3609640Y555200D01*
X3609500Y557100D01*
X3604085Y557100D01*
X3604000Y555700D01*
X3604100Y553700D01*
X3604380Y551800D01*
X3604840Y550000D01*
X3605500Y548320D01*
X3606320Y546740D01*
X3607320Y545280D01*
X3608500Y543940D01*
X3609860Y542720D01*
X3611380Y541620D01*
X3613080Y540660D01*
X3614940Y539840D01*
X3616960Y539140D01*
X3619120Y538600D01*
X3621460Y538220D01*
X3623960Y537980D01*
X3626600Y537900D01*
X3629140Y538000D01*
X3631560Y538300D01*
X3633860Y538780D01*
X3636019Y539440D01*
X3638020Y540260D01*
X3639900Y541240D01*
X3641600Y542340D01*
X3643159Y543580D01*
X3644560Y544940D01*
X3645779Y546400D01*
X3646840Y547960D01*
X3647700Y549580D01*
X3648399Y551280D01*
X3648900Y553040D01*
X3649200Y554860D01*
X3649300Y556700D01*
X3648960Y560240D01*
X3647960Y563360D01*
X3646340Y566240D01*
X3644200Y569100D01*
X3651700Y568800D01*
X3668700Y568800D01*
X3668700Y575200D01*
G37*
G36*
X3629100Y530200D02*
G01*
X3626960Y530120D01*
X3625200Y529900D01*
X3625200Y524400D01*
X3630000Y524400D01*
X3633240Y524200D01*
X3636060Y523640D01*
X3638480Y522720D01*
X3640460Y521460D01*
X3642000Y519860D01*
X3643100Y517939D01*
X3643780Y515720D01*
X3644000Y513200D01*
X3643759Y510840D01*
X3643039Y508620D01*
X3641900Y506540D01*
X3640299Y504680D01*
X3638300Y503080D01*
X3635899Y501800D01*
X3633120Y500860D01*
X3630000Y500300D01*
X3630000Y524400D01*
X3625200Y524400D01*
X3625200Y500400D01*
X3622860Y500600D01*
X3620680Y501040D01*
X3618639Y501659D01*
X3616780Y502480D01*
X3615100Y503500D01*
X3613600Y504680D01*
X3612300Y506060D01*
X3611220Y507580D01*
X3610340Y509280D01*
X3609720Y511120D01*
X3609340Y513080D01*
X3609200Y515200D01*
X3609440Y518220D01*
X3610120Y521019D01*
X3611220Y523640D01*
X3612700Y526100D01*
X3608399Y528500D01*
X3606700Y525580D01*
X3605960Y524000D01*
X3605299Y522320D01*
X3604760Y520520D01*
X3604360Y518620D01*
X3604100Y516580D01*
X3604000Y514400D01*
X3604100Y512299D01*
X3604380Y510240D01*
X3604860Y508280D01*
X3605539Y506380D01*
X3606380Y504600D01*
X3607400Y502900D01*
X3608600Y501320D01*
X3609980Y499880D01*
X3611520Y498560D01*
X3613200Y497380D01*
X3615059Y496360D01*
X3617080Y495500D01*
X3619240Y494820D01*
X3621560Y494320D01*
X3624000Y494000D01*
X3626600Y493900D01*
X3629160Y494000D01*
X3631600Y494320D01*
X3633900Y494820D01*
X3636060Y495500D01*
X3638060Y496360D01*
X3639940Y497360D01*
X3641640Y498519D01*
X3643200Y499799D01*
X3644580Y501200D01*
X3645800Y502700D01*
X3646860Y504300D01*
X3647720Y505959D01*
X3648399Y507700D01*
X3648900Y509500D01*
X3649200Y511340D01*
X3649300Y513200D01*
X3649140Y515800D01*
X3648680Y518200D01*
X3647900Y520420D01*
X3646840Y522400D01*
X3645500Y524180D01*
X3643880Y525740D01*
X3642020Y527080D01*
X3639900Y528200D01*
X3637520Y529060D01*
X3634940Y529700D01*
X3632120Y530080D01*
G37*
G36*
X3605600Y489700D02*
G01*
X3604500Y485860D01*
X3604140Y483880D01*
X3604000Y482000D01*
X3604260Y478900D01*
X3605000Y476340D01*
X3606220Y474280D01*
X3607840Y472680D01*
X3609880Y471500D01*
X3612260Y470700D01*
X3614980Y470240D01*
X3618000Y470100D01*
X3642799Y470100D01*
X3642799Y463600D01*
X3647799Y463600D01*
X3648200Y470400D01*
X3660400Y471200D01*
X3660400Y476599D01*
X3648200Y476599D01*
X3648200Y488500D01*
X3642799Y488500D01*
X3642799Y476599D01*
X3617799Y476599D01*
X3614240Y476940D01*
X3611560Y478040D01*
X3609880Y480140D01*
X3609300Y483400D01*
X3609400Y484660D01*
X3609680Y485980D01*
X3610059Y487260D01*
X3610500Y488400D01*
G37*
G36*
X3605000Y455900D02*
G01*
X3605000Y450500D01*
X3610299Y450000D01*
X3610299Y449700D01*
X3609020Y448120D01*
X3607840Y446460D01*
X3606760Y444739D01*
X3605840Y442939D01*
X3605080Y441079D01*
X3604500Y439159D01*
X3604102Y436900D01*
X3609200Y436900D01*
X3609580Y440100D01*
X3610740Y443160D01*
X3612620Y446200D01*
X3615200Y449400D01*
X3627900Y449400D01*
X3627420Y445780D01*
X3626840Y442560D01*
X3626180Y439739D01*
X3625460Y437280D01*
X3624640Y435180D01*
X3623740Y433420D01*
X3622760Y431960D01*
X3621680Y430820D01*
X3620520Y429960D01*
X3619260Y429360D01*
X3617919Y429020D01*
X3616500Y428900D01*
X3613159Y429540D01*
X3610899Y431260D01*
X3609600Y433800D01*
X3609200Y436900D01*
X3604102Y436900D01*
X3604000Y435200D01*
X3604200Y432600D01*
X3604800Y430200D01*
X3605779Y428040D01*
X3607120Y426200D01*
X3608840Y424680D01*
X3610920Y423560D01*
X3613340Y422840D01*
X3616100Y422600D01*
X3617820Y422700D01*
X3619440Y422980D01*
X3620940Y423480D01*
X3622340Y424180D01*
X3623639Y425060D01*
X3624840Y426180D01*
X3625960Y427500D01*
X3626980Y429020D01*
X3627900Y430780D01*
X3628759Y432740D01*
X3629520Y434940D01*
X3630220Y437360D01*
X3630840Y440020D01*
X3631400Y442900D01*
X3632300Y449400D01*
X3634460Y449340D01*
X3636560Y449040D01*
X3638519Y448480D01*
X3640280Y447620D01*
X3641760Y446380D01*
X3642900Y444780D01*
X3643639Y442720D01*
X3643900Y440200D01*
X3643480Y436420D01*
X3642360Y432939D01*
X3640820Y429799D01*
X3639100Y427100D01*
X3643600Y424400D01*
X3645539Y427660D01*
X3646500Y429560D01*
X3647380Y431640D01*
X3648159Y433860D01*
X3648759Y436200D01*
X3649160Y438660D01*
X3649300Y441200D01*
X3649160Y443700D01*
X3648720Y445940D01*
X3648020Y447920D01*
X3647080Y449680D01*
X3645880Y451200D01*
X3644440Y452480D01*
X3642799Y453560D01*
X3640960Y454420D01*
X3638920Y455080D01*
X3636700Y455540D01*
X3634320Y455820D01*
X3631800Y455900D01*
G37*
G36*
X3629100Y415700D02*
G01*
X3626960Y415620D01*
X3625200Y415400D01*
X3625200Y410000D01*
X3630000Y410000D01*
X3633240Y409799D01*
X3636060Y409240D01*
X3638480Y408300D01*
X3640460Y407020D01*
X3642000Y405420D01*
X3643100Y403500D01*
X3643780Y401300D01*
X3644000Y398800D01*
X3643759Y396440D01*
X3643039Y394200D01*
X3641900Y392120D01*
X3640299Y390240D01*
X3638300Y388620D01*
X3635899Y387320D01*
X3633120Y386360D01*
X3630000Y385800D01*
X3630000Y410000D01*
X3625200Y410000D01*
X3625200Y385900D01*
X3622860Y386100D01*
X3620680Y386540D01*
X3618639Y387160D01*
X3616780Y387980D01*
X3615100Y389000D01*
X3613600Y390180D01*
X3612300Y391560D01*
X3611220Y393080D01*
X3610340Y394780D01*
X3609720Y396620D01*
X3609340Y398579D01*
X3609200Y400700D01*
X3609440Y403720D01*
X3610120Y406520D01*
X3611220Y409140D01*
X3612700Y411599D01*
X3608399Y414000D01*
X3606700Y411079D01*
X3605960Y409500D01*
X3605299Y407819D01*
X3604760Y406019D01*
X3604360Y404120D01*
X3604100Y402080D01*
X3604000Y399900D01*
X3604100Y397800D01*
X3604380Y395740D01*
X3604860Y393780D01*
X3605539Y391880D01*
X3606380Y390100D01*
X3607400Y388400D01*
X3608600Y386820D01*
X3609980Y385379D01*
X3611520Y384060D01*
X3613200Y382879D01*
X3615059Y381860D01*
X3617080Y381000D01*
X3619240Y380319D01*
X3621560Y379820D01*
X3624000Y379500D01*
X3626600Y379400D01*
X3629160Y379500D01*
X3631600Y379820D01*
X3633900Y380340D01*
X3636060Y381019D01*
X3638060Y381880D01*
X3639940Y382900D01*
X3641640Y384060D01*
X3643200Y385340D01*
X3644580Y386740D01*
X3645800Y388240D01*
X3646860Y389840D01*
X3647720Y391500D01*
X3648399Y393240D01*
X3648900Y395020D01*
X3649200Y396860D01*
X3649300Y398700D01*
X3649140Y401300D01*
X3648680Y403700D01*
X3647900Y405920D01*
X3646840Y407900D01*
X3645500Y409680D01*
X3643880Y411240D01*
X3642020Y412580D01*
X3639900Y413700D01*
X3637520Y414560D01*
X3634940Y415200D01*
X3632120Y415580D01*
G37*
G36*
X3648399Y376300D02*
G01*
X3642700Y375000D01*
X3643240Y373060D01*
X3643399Y370900D01*
X3643260Y369480D01*
X3642860Y368020D01*
X3642160Y366560D01*
X3641120Y365080D01*
X3639720Y363660D01*
X3637960Y362280D01*
X3635800Y360980D01*
X3633200Y359799D01*
X3605000Y359799D01*
X3605000Y353300D01*
X3648200Y353300D01*
X3648200Y358600D01*
X3640299Y359200D01*
X3640299Y359500D01*
X3642240Y360660D01*
X3643980Y361940D01*
X3645520Y363340D01*
X3646820Y364860D01*
X3647880Y366460D01*
X3648660Y368140D01*
X3649140Y369880D01*
X3649300Y371700D01*
X3649260Y373000D01*
X3649120Y374140D01*
X3648840Y375220D01*
G37*
G36*
X3612400Y342800D02*
G01*
X3610480Y341019D01*
X3608800Y339140D01*
X3607360Y337120D01*
X3606180Y334980D01*
X3605240Y332700D01*
X3604560Y330260D01*
X3604140Y327660D01*
X3604000Y324900D01*
X3604080Y322760D01*
X3604340Y320680D01*
X3604760Y318660D01*
X3605320Y316720D01*
X3606060Y314840D01*
X3606960Y313060D01*
X3608000Y311360D01*
X3609200Y309760D01*
X3610539Y308260D01*
X3612020Y306860D01*
X3613660Y305580D01*
X3615419Y304400D01*
X3617340Y303340D01*
X3619380Y302400D01*
X3621560Y301600D01*
X3623860Y300920D01*
X3626280Y300400D01*
X3628840Y300020D01*
X3631500Y299780D01*
X3634300Y299700D01*
X3637060Y299780D01*
X3639720Y300020D01*
X3642260Y300420D01*
X3644680Y300960D01*
X3646960Y301640D01*
X3649140Y302460D01*
X3651180Y303400D01*
X3653080Y304480D01*
X3654860Y305680D01*
X3656500Y307000D01*
X3658000Y308420D01*
X3659340Y309960D01*
X3660560Y311600D01*
X3661600Y313320D01*
X3662500Y315140D01*
X3663260Y317040D01*
X3663840Y319020D01*
X3664260Y321079D01*
X3664520Y323220D01*
X3664600Y325400D01*
X3664440Y327980D01*
X3664020Y330420D01*
X3663320Y332680D01*
X3662440Y334780D01*
X3661380Y336700D01*
X3660179Y338420D01*
X3658860Y339960D01*
X3657500Y341300D01*
X3653200Y337600D01*
X3655460Y335160D01*
X3657240Y332340D01*
X3658380Y329120D01*
X3658800Y325500D01*
X3658700Y323400D01*
X3658380Y321380D01*
X3657840Y319480D01*
X3657120Y317680D01*
X3656180Y316000D01*
X3655059Y314440D01*
X3653759Y313000D01*
X3652260Y311680D01*
X3650600Y310520D01*
X3648759Y309480D01*
X3646760Y308600D01*
X3644580Y307860D01*
X3642260Y307260D01*
X3639780Y306840D01*
X3637160Y306580D01*
X3634400Y306500D01*
X3631640Y306580D01*
X3629000Y306840D01*
X3626520Y307240D01*
X3624180Y307800D01*
X3622000Y308520D01*
X3619980Y309380D01*
X3618120Y310400D01*
X3616440Y311540D01*
X3614920Y312820D01*
X3613600Y314220D01*
X3612460Y315760D01*
X3611520Y317420D01*
X3610779Y319200D01*
X3610240Y321100D01*
X3609920Y323100D01*
X3609800Y325200D01*
X3609920Y327280D01*
X3610240Y329219D01*
X3610779Y331079D01*
X3611540Y332819D01*
X3612500Y334500D01*
X3613639Y336079D01*
X3614980Y337620D01*
X3616500Y339099D01*
G37*
D10*
X3427700Y90500D02*
G01*
X3427700Y46900D01*
X3430500Y38699D01*
X3433199Y35999D01*
X3438599Y33299D01*
X3444099Y33299D01*
X3449499Y35999D01*
X3452299Y38699D01*
X3455000Y46900D01*
X3455000Y52399D01*
X3409700Y90500D02*
G01*
X3409700Y33299D01*
X3409700Y33299D02*
G01*
X3376999Y33299D01*
X3318100Y76900D02*
G01*
X3320799Y82399D01*
X3326300Y87800D01*
X3331700Y90500D01*
X3342600Y90500D01*
X3348100Y87800D01*
X3353500Y82399D01*
X3356300Y76900D01*
X3358999Y68699D01*
X3358999Y55100D01*
X3356300Y46900D01*
X3353500Y41500D01*
X3348100Y35999D01*
X3342600Y33299D01*
X3331700Y33299D01*
X3326300Y35999D01*
X3320799Y41500D01*
X3318100Y46900D01*
X3272799Y90500D02*
G01*
X3272799Y46900D01*
X3275500Y38699D01*
X3278299Y35999D01*
X3283699Y33299D01*
X3289200Y33299D01*
X3294600Y35999D01*
X3297399Y38699D01*
X3300100Y46900D01*
X3300100Y52399D01*
X3254799Y90500D02*
G01*
X3254799Y33299D01*
X3254799Y33299D02*
G01*
X3222100Y33299D01*
X3163199Y76900D02*
G01*
X3165900Y82399D01*
X3171400Y87800D01*
X3176800Y90500D01*
X3187700Y90500D01*
X3193199Y87800D01*
X3198599Y82399D01*
X3201400Y76900D01*
X3204099Y68699D01*
X3204099Y55100D01*
X3201400Y46900D01*
X3198599Y41500D01*
X3193199Y35999D01*
X3187700Y33299D01*
X3176800Y33299D01*
X3171400Y35999D01*
X3165900Y41500D01*
X3163199Y46900D01*
X3117899Y90500D02*
G01*
X3117899Y46900D01*
X3120600Y38699D01*
X3123400Y35999D01*
X3128800Y33299D01*
X3134300Y33299D01*
X3139700Y35999D01*
X3142500Y38699D01*
X3145200Y46900D01*
X3145200Y52399D01*
X3099899Y90500D02*
G01*
X3099899Y33299D01*
X3099899Y33299D02*
G01*
X3067200Y33299D01*
X3008299Y76900D02*
G01*
X3011000Y82399D01*
X3016499Y87800D01*
X3021899Y90500D01*
X3032799Y90500D01*
X3038299Y87800D01*
X3043699Y82399D01*
X3046499Y76900D01*
X3049200Y68699D01*
X3049200Y55100D01*
X3046499Y46900D01*
X3043699Y41500D01*
X3038299Y35999D01*
X3032799Y33299D01*
X3021899Y33299D01*
X3016499Y35999D01*
X3011000Y41500D01*
X3008299Y46900D01*
X2963000Y90500D02*
G01*
X2963000Y46900D01*
X2965699Y38699D01*
X2968500Y35999D01*
X2973900Y33299D01*
X2979399Y33299D01*
X2984799Y35999D01*
X2987500Y38699D01*
X2990299Y46900D01*
X2990299Y52399D01*
X2945000Y90500D02*
G01*
X2945000Y33299D01*
X2945000Y33299D02*
G01*
X2912299Y33299D01*
X2853400Y76900D02*
G01*
X2856099Y82399D01*
X2861499Y87800D01*
X2866999Y90500D01*
X2877899Y90500D01*
X2883400Y87800D01*
X2888800Y82399D01*
X2891499Y76900D01*
X2894300Y68699D01*
X2894300Y55100D01*
X2891499Y46900D01*
X2888800Y41500D01*
X2883400Y35999D01*
X2877899Y33299D01*
X2866999Y33299D01*
X2861499Y35999D01*
X2856099Y41500D01*
X2853400Y46900D01*
X575000Y110727D02*
G01*
X545909Y34364D01*
X516817Y110727D02*
G01*
X545909Y34364D01*
X492818Y96181D02*
G01*
X485545Y99818D01*
X474636Y110727D01*
X474636Y34364D01*
X446999Y52545D02*
G01*
X450635Y48908D01*
X446999Y45273D01*
X443364Y48908D01*
X446999Y52545D01*
X397545Y110727D02*
G01*
X408454Y107091D01*
X415727Y96181D01*
X419364Y78000D01*
X419364Y67091D01*
X415727Y48908D01*
X408454Y38000D01*
X397545Y34364D01*
X390273Y34364D01*
X379364Y38000D01*
X372091Y48908D01*
X368454Y67091D01*
X368454Y78000D01*
X372091Y96181D01*
X379364Y107091D01*
X390273Y110727D01*
X397545Y110727D01*
X340817Y52545D02*
G01*
X344454Y48908D01*
X340817Y45273D01*
X337181Y48908D01*
X340817Y52545D01*
X291363Y110727D02*
G01*
X302273Y107091D01*
X309544Y96181D01*
X313182Y78000D01*
X313182Y67091D01*
X309544Y48908D01*
X302273Y38000D01*
X291363Y34364D01*
X284090Y34364D01*
X273182Y38000D01*
X265909Y48908D01*
X262273Y67091D01*
X262273Y78000D01*
X265909Y96181D01*
X273182Y107091D01*
X284090Y110727D01*
X291363Y110727D01*
D11*
X105545Y281363D02*
G01*
X102818Y275909D01*
X97363Y270455D01*
X91909Y267726D01*
X83726Y265000D01*
X70091Y265000D01*
X61909Y267726D01*
X56455Y270455D01*
X50999Y275909D01*
X48272Y281363D01*
X48272Y292273D01*
X50999Y297726D01*
X56455Y303182D01*
X61909Y305909D01*
X70091Y308636D01*
X83726Y308636D01*
X91909Y305909D01*
X97363Y303182D01*
X102818Y297726D01*
X105545Y292273D01*
X105545Y281363D01*
X97363Y364818D02*
G01*
X102818Y359364D01*
X105545Y351181D01*
X105545Y340273D01*
X102818Y332091D01*
X97363Y326635D01*
X91909Y326635D01*
X86455Y329364D01*
X83726Y332091D01*
X80999Y337545D01*
X75545Y353908D01*
X72818Y359364D01*
X70091Y362091D01*
X64636Y364818D01*
X56455Y364818D01*
X50999Y359364D01*
X48272Y351181D01*
X48272Y340273D01*
X50999Y332091D01*
X56455Y326635D01*
X105545Y404636D02*
G01*
X48272Y382818D01*
X105545Y404636D02*
G01*
X48272Y426455D01*
X67363Y390999D02*
G01*
X67363Y418272D01*
X105545Y444454D02*
G01*
X48272Y444454D01*
X105545Y444454D02*
G01*
X105545Y469000D01*
X102818Y477181D01*
X100091Y479908D01*
X94636Y482636D01*
X89182Y482636D01*
X83726Y479908D01*
X80999Y477181D01*
X78272Y469000D01*
X78272Y444454D02*
G01*
X78272Y469000D01*
X75545Y477181D01*
X72818Y479908D01*
X67363Y482636D01*
X59182Y482636D01*
X53726Y479908D01*
X50999Y477181D01*
X48272Y469000D01*
X48272Y444454D01*
X105545Y542636D02*
G01*
X48272Y542636D01*
X105545Y542636D02*
G01*
X105545Y567181D01*
X102818Y575363D01*
X100091Y578090D01*
X94636Y580817D01*
X86455Y580817D01*
X80999Y578090D01*
X78272Y575363D01*
X75545Y567181D01*
X75545Y542636D01*
X86455Y598818D02*
G01*
X48272Y598818D01*
X70091Y598818D02*
G01*
X78272Y601545D01*
X83726Y606999D01*
X86455Y612454D01*
X86455Y620635D01*
X86455Y652273D02*
G01*
X83726Y646817D01*
X78272Y641363D01*
X70091Y638636D01*
X64636Y638636D01*
X56455Y641363D01*
X50999Y646817D01*
X48272Y652273D01*
X48272Y660455D01*
X50999Y665909D01*
X56455Y671363D01*
X64636Y674090D01*
X70091Y674090D01*
X78272Y671363D01*
X83726Y665909D01*
X86455Y660455D01*
X86455Y652273D01*
X105545Y703000D02*
G01*
X102818Y705727D01*
X105545Y708454D01*
X108272Y705727D01*
X105545Y703000D01*
X86455Y705727D02*
G01*
X40091Y705727D01*
X31909Y703000D01*
X29182Y697545D01*
X29182Y692091D01*
X70091Y726455D02*
G01*
X70091Y759182D01*
X75545Y759182D01*
X80999Y756455D01*
X83726Y753726D01*
X86455Y748272D01*
X86455Y740091D01*
X83726Y734636D01*
X78272Y729182D01*
X70091Y726455D01*
X64636Y726455D01*
X56455Y729182D01*
X50999Y734636D01*
X48272Y740091D01*
X48272Y748272D01*
X50999Y753726D01*
X56455Y759182D01*
X78272Y809908D02*
G01*
X83726Y804454D01*
X86455Y799000D01*
X86455Y790817D01*
X83726Y785363D01*
X78272Y779908D01*
X70091Y777181D01*
X64636Y777181D01*
X56455Y779908D01*
X50999Y785363D01*
X48272Y790817D01*
X48272Y799000D01*
X50999Y804454D01*
X56455Y809908D01*
X105545Y836091D02*
G01*
X59182Y836091D01*
X50999Y838818D01*
X48272Y844272D01*
X48272Y849726D01*
X86455Y827908D02*
G01*
X86455Y846999D01*
X116455Y909726D02*
G01*
X29182Y909726D01*
X116455Y912454D02*
G01*
X29182Y912454D01*
X116455Y909726D02*
G01*
X116455Y928818D01*
X29182Y909726D02*
G01*
X29182Y928818D01*
X86455Y960455D02*
G01*
X83726Y955000D01*
X78272Y949544D01*
X70091Y946817D01*
X64636Y946817D01*
X56455Y949544D01*
X50999Y955000D01*
X48272Y960455D01*
X48272Y968636D01*
X50999Y974090D01*
X56455Y979544D01*
X64636Y982273D01*
X70091Y982273D01*
X78272Y979544D01*
X83726Y974090D01*
X86455Y968636D01*
X86455Y960455D01*
X78272Y1030273D02*
G01*
X83726Y1027545D01*
X86455Y1019364D01*
X86455Y1011181D01*
X83726Y1003000D01*
X78272Y1000273D01*
X72818Y1003000D01*
X70091Y1008454D01*
X67363Y1022091D01*
X64636Y1027545D01*
X59182Y1030273D01*
X56455Y1030273D01*
X50999Y1027545D01*
X48272Y1019364D01*
X48272Y1011181D01*
X50999Y1003000D01*
X56455Y1000273D01*
X86455Y1080999D02*
G01*
X48272Y1080999D01*
X78272Y1080999D02*
G01*
X83726Y1075545D01*
X86455Y1070091D01*
X86455Y1061909D01*
X83726Y1056455D01*
X78272Y1050999D01*
X70091Y1048272D01*
X64636Y1048272D01*
X56455Y1050999D01*
X50999Y1056455D01*
X48272Y1061909D01*
X48272Y1070091D01*
X50999Y1075545D01*
X56455Y1080999D01*
X105545Y1099000D02*
G01*
X48272Y1099000D01*
X78272Y1099000D02*
G01*
X83726Y1104454D01*
X86455Y1109908D01*
X86455Y1118090D01*
X83726Y1123544D01*
X78272Y1129000D01*
X70091Y1131727D01*
X64636Y1131727D01*
X56455Y1129000D01*
X50999Y1123544D01*
X48272Y1118090D01*
X48272Y1109908D01*
X50999Y1104454D01*
X56455Y1099000D01*
X61909Y1152455D02*
G01*
X59182Y1149726D01*
X56455Y1152455D01*
X59182Y1155181D01*
X61909Y1152455D01*
X86455Y1173182D02*
G01*
X48272Y1203182D01*
X86455Y1203182D02*
G01*
X48272Y1173182D01*
X86455Y1223908D02*
G01*
X48272Y1240273D01*
X86455Y1256635D02*
G01*
X48272Y1240273D01*
X37363Y1234818D01*
X31909Y1229364D01*
X29182Y1223908D01*
X29182Y1221181D01*
X86455Y1304636D02*
G01*
X48272Y1274636D01*
X86455Y1274636D02*
G01*
X86455Y1304636D01*
X48272Y1274636D02*
G01*
X48272Y1304636D01*
X116455Y1339000D02*
G01*
X29182Y1339000D01*
X116455Y1341727D02*
G01*
X29182Y1341727D01*
X116455Y1322636D02*
G01*
X116455Y1341727D01*
X29182Y1322636D02*
G01*
X29182Y1341727D01*
M02*
