G04 Layer: BottomLayer*
G04 EasyEDA v6.5.44, 2024-09-11 13:33:57*
G04 d97fa038366940f8a7afa66022820b17,998d2601f2934e99b29d4200b4e4a5d6,10*
G04 Gerber Generator version 0.2*
G04 Scale: 100 percent, Rotated: No, Reflected: No *
G04 Dimensions in inches *
G04 leading zeros omitted , absolute positions ,3 integer and 6 decimal *
%FSLAX36Y36*%
%MOIN*%

%ADD10C,0.0080*%
%ADD11C,0.0150*%
%ADD12C,0.0100*%
%ADD13C,0.1063*%
%ADD14O,0.070866X0.047244*%
%ADD15O,0.07873999999999999X0.047244*%
%ADD16C,0.0240*%
%ADD17C,0.0244*%

%LPD*%
D10*
X1725000Y150000D02*
G01*
X270000Y150000D01*
X65000Y355000D01*
X65000Y1090000D01*
X310000Y1335000D01*
X575000Y1335000D01*
X3270000Y340000D02*
G01*
X3270000Y400000D01*
X2716499Y953499D01*
X1691499Y953499D01*
X1530000Y1115000D01*
X1530000Y1140000D01*
X1560000Y1025000D02*
G01*
X1690000Y895000D01*
X2695000Y895000D01*
X3190000Y400000D01*
X3190000Y340000D01*
X1620000Y1225000D02*
G01*
X1850000Y995000D01*
X3190000Y995000D01*
X1275000Y965000D02*
G01*
X1465000Y965000D01*
X1275000Y995000D02*
G01*
X1475000Y995000D01*
X1275000Y905000D02*
G01*
X1480000Y905000D01*
X1530000Y955000D01*
X1530000Y1140000D01*
X1275000Y935000D02*
G01*
X1465000Y935000D01*
X1500000Y970000D01*
X1500000Y1140000D01*
D11*
X635000Y475000D02*
G01*
X635000Y1226242D01*
X310000Y1080000D02*
G01*
X370000Y1080000D01*
X380000Y1070000D01*
D10*
X690000Y625000D02*
G01*
X695000Y620000D01*
X1000000Y620000D01*
X1035000Y655000D01*
X690000Y805000D02*
G01*
X690000Y625000D01*
X840000Y955000D02*
G01*
X840000Y870000D01*
X795000Y825000D01*
X795000Y645000D01*
X1033231Y723229D02*
G01*
X1035000Y721462D01*
X1035000Y655000D01*
D11*
X540000Y465000D02*
G01*
X540000Y370000D01*
D10*
X1420000Y560000D02*
G01*
X1420000Y540000D01*
X1525000Y435000D01*
X2610000Y435000D01*
X2500000Y390000D02*
G01*
X1505000Y390000D01*
X1385000Y510000D01*
X1385000Y585000D01*
D12*
X2100000Y275000D02*
G01*
X2100000Y80000D01*
X2140000Y215000D02*
G01*
X2140200Y214800D01*
X2140200Y80199D01*
X2010000Y240000D02*
G01*
X2010000Y80000D01*
X1925000Y190000D02*
G01*
X1925000Y80000D01*
D10*
X1487600Y1515599D02*
G01*
X1487600Y1502600D01*
X1440000Y1455000D01*
X1440000Y1245000D01*
X1490000Y1630000D02*
G01*
X1935000Y1630000D01*
X1945000Y1620000D01*
X2090000Y1620000D01*
X1245000Y1215000D02*
G01*
X1275000Y1245000D01*
X1440000Y1245000D01*
X1475000Y1760000D02*
G01*
X1630000Y1915000D01*
X3375000Y1915000D01*
X3455000Y1915000D01*
X1225000Y460000D02*
G01*
X1300000Y460000D01*
X1320000Y480000D01*
D12*
X1485000Y1555000D02*
G01*
X1510000Y1580000D01*
X1905000Y1580000D01*
X1925000Y1600000D01*
X1487646Y1515630D02*
G01*
X1492016Y1520000D01*
X1655000Y1520000D01*
X1285000Y2230000D02*
G01*
X1460000Y2055000D01*
X1460000Y1830000D01*
X1255000Y1840000D02*
G01*
X1315000Y1900000D01*
X1430000Y1900000D01*
X515000Y2285000D02*
G01*
X590000Y2360000D01*
X665000Y2360000D01*
X102199Y1770279D02*
G01*
X267550Y1770279D01*
X102199Y1770279D02*
G01*
X102199Y1429720D01*
X102199Y1429720D02*
G01*
X267550Y1429720D01*
X1450000Y1590000D02*
G01*
X1430000Y1570000D01*
X1430000Y1475000D01*
X1450000Y1655000D02*
G01*
X1450000Y1590000D01*
X1485000Y1555000D01*
X1125000Y1555000D02*
G01*
X1200000Y1630000D01*
X1200000Y1650000D01*
D10*
X1290000Y1495000D02*
G01*
X1290000Y1475000D01*
X1225000Y1410000D01*
X1215000Y1410000D01*
X1205000Y1400000D01*
X1205000Y1295000D01*
X1130000Y1220000D01*
X1130799Y1115000D01*
X1035000Y1630000D02*
G01*
X1030000Y1630000D01*
X1015000Y1615000D01*
X1035000Y1580000D02*
G01*
X1030000Y1580000D01*
X1015000Y1595000D01*
X1015000Y1615000D02*
G01*
X1011499Y1611500D01*
X358499Y1611500D01*
X355000Y1615000D01*
X2180000Y1580000D02*
G01*
X2115000Y1645000D01*
X1605000Y1645000D01*
X1580000Y1670000D01*
X1565000Y1670000D01*
X1170000Y1115000D02*
G01*
X1245000Y1190000D01*
X1245000Y1215000D01*
D12*
X575000Y1335000D02*
G01*
X990000Y1335000D01*
X1015000Y1360000D01*
X1035000Y1360000D01*
X1905000Y1580000D02*
G01*
X2191769Y1293229D01*
X2351769Y1293229D01*
X2351769Y1293229D02*
G01*
X3044210Y1293229D01*
D10*
X2055790Y160000D02*
G01*
X2055000Y80000D01*
D12*
X1125000Y1555000D02*
G01*
X1015000Y1445000D01*
X1015000Y1360000D01*
X1035000Y1360000D01*
D10*
X875591Y960808D02*
G01*
X865000Y950216D01*
X865000Y875000D01*
X850000Y860000D01*
X850000Y660000D01*
X835000Y645000D01*
X65000Y1090000D02*
G01*
X45000Y1110000D01*
X45000Y2005000D01*
X65000Y2025000D01*
X135000Y2025000D01*
X1015000Y1595000D02*
G01*
X1011499Y1598499D01*
X368499Y1598499D01*
X355000Y1585000D01*
D11*
X635000Y1226242D02*
G01*
X635000Y1280000D01*
X655000Y1300000D01*
D10*
X2675000Y870000D02*
G01*
X2675000Y790000D01*
D11*
X597500Y2027500D02*
G01*
X525000Y1955000D01*
X525000Y1845000D01*
D10*
X1275000Y875000D02*
G01*
X1440000Y875000D01*
X1220000Y1435000D02*
G01*
X1200000Y1435000D01*
X1185000Y1420000D01*
X1185000Y1303218D01*
X1031981Y1150199D01*
D13*
G01*
X115000Y115000D03*
G01*
X115000Y2385000D03*
G01*
X3600000Y2385000D03*
G01*
X3600000Y115000D03*
D14*
G01*
X102199Y1429720D03*
D15*
G01*
X267550Y1429720D03*
G01*
X267550Y1770279D03*
D14*
G01*
X102199Y1770279D03*
D16*
G01*
X826379Y776379D03*
G01*
X873620Y823620D03*
G01*
X873620Y776379D03*
G01*
X826379Y823620D03*
D17*
G01*
X1130749Y1115000D03*
G01*
X1170000Y1115000D03*
G01*
X1220000Y1435000D03*
G01*
X1031980Y1150199D03*
G01*
X1290000Y1495000D03*
G01*
X1035000Y1630000D03*
G01*
X1035000Y1580000D03*
G01*
X355000Y1615000D03*
G01*
X355000Y1585000D03*
G01*
X1490000Y1630000D03*
G01*
X1125000Y1555000D03*
G01*
X1035000Y1360000D03*
G01*
X1200000Y1650000D03*
G01*
X1485000Y1555000D03*
G01*
X1450000Y1655000D03*
G01*
X1430000Y1475000D03*
G01*
X1475000Y1760000D03*
G01*
X1487650Y1515630D03*
G01*
X1655000Y1520000D03*
G01*
X575000Y1335000D03*
G01*
X655000Y1300000D03*
G01*
X635000Y475000D03*
G01*
X2100000Y80000D03*
G01*
X1925000Y80000D03*
G01*
X2010000Y80000D03*
G01*
X2140200Y80199D03*
G01*
X2055000Y80000D03*
G01*
X2055789Y160000D03*
G01*
X515000Y2285000D03*
G01*
X665000Y2360000D03*
G01*
X3044210Y1293229D03*
G01*
X3455000Y1915000D03*
G01*
X1430000Y1900000D03*
G01*
X1255000Y1840000D03*
G01*
X1460000Y1830000D03*
G01*
X1285000Y2230000D03*
G01*
X1925000Y1600000D03*
G01*
X1245000Y1215000D03*
G01*
X1440000Y1245000D03*
G01*
X1320000Y480000D03*
G01*
X1225000Y460000D03*
G01*
X1925000Y190000D03*
G01*
X2140000Y215000D03*
G01*
X2010000Y240000D03*
G01*
X2100000Y275000D03*
G01*
X1565000Y1670000D03*
G01*
X2090000Y1620000D03*
G01*
X2180000Y1580000D03*
G01*
X1385000Y585000D03*
G01*
X1420000Y560000D03*
G01*
X2610000Y435000D03*
G01*
X2500000Y390000D03*
G01*
X1725000Y150000D03*
G01*
X540000Y370000D03*
G01*
X540000Y465000D03*
G01*
X1035000Y655000D03*
G01*
X1033230Y723229D03*
G01*
X840000Y955000D03*
G01*
X795000Y645000D03*
G01*
X875590Y960810D03*
G01*
X835000Y645000D03*
G01*
X690000Y625000D03*
G01*
X690000Y805000D03*
G01*
X380000Y1070000D03*
G01*
X310000Y1080000D03*
G01*
X1275000Y905000D03*
G01*
X1275000Y935000D03*
G01*
X1275000Y965000D03*
G01*
X1275000Y995000D03*
G01*
X1530000Y1140000D03*
G01*
X1500000Y1140000D03*
G01*
X1590000Y1140000D03*
G01*
X1475000Y995000D03*
G01*
X1465000Y965000D03*
G01*
X1620000Y1225000D03*
G01*
X3190000Y995000D03*
G01*
X3270000Y340000D03*
G01*
X3190000Y340000D03*
G01*
X1560000Y1025000D03*
G01*
X635000Y1226239D03*
G01*
X135000Y2025000D03*
G01*
X2675000Y870000D03*
G01*
X2675000Y790000D03*
G01*
X597500Y2027500D03*
G01*
X525000Y1845000D03*
G01*
X1275000Y875000D03*
G01*
X1440000Y875000D03*
M02*
